<!-- Generator: Adobe Illustrator 18.0.0, SVG Export Plug-In  -->
<svg version="1.1"
	 xmlns="http://www.w3.org/2000/svg" xmlns:xlink="http://www.w3.org/1999/xlink" xmlns:a="http://ns.adobe.com/AdobeSVGViewerExtensions/3.0/"
	 x="0px" y="0px" width="1347.6px" height="357.6px" viewBox="0 0 1347.6 357.6" enable-background="new 0 0 1347.6 357.6"
	 xml:space="preserve">
<defs>
</defs>
<g id="City_copia">
	<polygon fill="#C9C9C9" points="1305.4,357.6 1347.6,357.6 1347.6,307.8 1326.5,276.9 1305.4,307.8 	"/>
	<polygon fill="#FFFFFF" points="1247.1,357.6 1289.3,357.6 1289.3,307.8 1268.2,276.9 1247.1,307.8 	"/>
	<rect x="1247.1" y="307.8" fill="#F0EFEF" width="58.3" height="49.8"/>
	<polygon fill="#C9C9C9" points="1268.2,276.9 1326.5,276.9 1305.4,307.8 1247.1,307.8 	"/>
	<polygon fill="#524A44" points="1301.9,307.8 1305.4,307.8 1326.5,276.9 1323,276.9 	"/>
	<rect x="1250.2" y="304.4" fill="#524A44" width="55" height="3.4"/>
	<polygon fill="#524A44" points="1247.1,307.8 1250.6,307.8 1271.7,276.9 1268.2,276.9 	"/>
	<g>
		<path fill="#84D2F6" d="M1264.7,345.2h-11.4v-20.9c0-3.2,2.6-5.7,5.7-5.7l0,0c3.2,0,5.7,2.6,5.7,5.7V345.2z"/>
		<path fill="#84D2F6" d="M1299.3,345.2h-11.4v-20.9c0-3.2,2.6-5.7,5.7-5.7l0,0c3.2,0,5.7,2.6,5.7,5.7V345.2z"/>
		<path fill="#84D2F6" d="M1282,345.2h-11.4v-20.9c0-3.2,2.6-5.7,5.7-5.7l0,0c3.2,0,5.7,2.6,5.7,5.7V345.2z"/>
	</g>
	<rect x="865.8" y="0" fill="#969696" width="82.6" height="357.6"/>
	<polygon fill="#E3E3E3" points="966.3,357.6 905.7,357.6 866.1,204.2 866.1,24.4 905.7,24.4 966.3,75.8 	"/>
	<polygon fill="#84D2F6" points="954.5,345.8 907.2,345.8 876.3,206.5 876.3,46.7 907.2,46.7 954.5,92.4 	"/>
	<rect x="735.8" y="213.6" fill="#C9C9C9" width="97.3" height="144"/>
	<rect x="741.4" y="169" fill="#676767" width="86.1" height="39"/>
	<polygon fill="#4E4E4E" points="735.8,208 735.8,164.5 741.4,164.5 741.4,208 827.5,208 827.5,164.5 833.1,164.5 833.1,208 
		833.1,208 833.1,213.6 735.8,213.6 735.8,208 	"/>
	<rect x="761" y="157.6" fill="#F0EFEF" width="10.5" height="28.7"/>
	<g>
		<path fill="#84D2F6" d="M808.8,256.2h12.7v-24.1c0-3.5-2.8-6.3-6.3-6.3l0,0c-3.5,0-6.3,2.8-6.3,6.3V256.2z"/>
		<path fill="#84D2F6" d="M788.4,256.2h12.7v-24.1c0-3.5-2.8-6.3-6.3-6.3l0,0c-3.5,0-6.3,2.8-6.3,6.3V256.2z"/>
		<path fill="#84D2F6" d="M767.9,256.2h12.7v-24.1c0-3.5-2.8-6.3-6.3-6.3l0,0c-3.5,0-6.3,2.8-6.3,6.3V256.2z"/>
		<path fill="#84D2F6" d="M747.4,256.2h12.7v-24.1c0-3.5-2.8-6.3-6.3-6.3l0,0c-3.5,0-6.3,2.8-6.3,6.3V256.2z"/>
	</g>
	<g>
		<path fill="#84D2F6" d="M808.8,300.6h12.7v-24.1c0-3.5-2.8-6.3-6.3-6.3l0,0c-3.5,0-6.3,2.8-6.3,6.3V300.6z"/>
		<path fill="#84D2F6" d="M788.4,300.6h12.7v-24.1c0-3.5-2.8-6.3-6.3-6.3l0,0c-3.5,0-6.3,2.8-6.3,6.3V300.6z"/>
		<path fill="#84D2F6" d="M767.9,300.6h12.7v-24.1c0-3.5-2.8-6.3-6.3-6.3l0,0c-3.5,0-6.3,2.8-6.3,6.3V300.6z"/>
		<path fill="#84D2F6" d="M747.4,300.6h12.7v-24.1c0-3.5-2.8-6.3-6.3-6.3l0,0c-3.5,0-6.3,2.8-6.3,6.3V300.6z"/>
	</g>
	<g>
		<path fill="#84D2F6" d="M808.8,345h12.7v-24.1c0-3.5-2.8-6.3-6.3-6.3l0,0c-3.5,0-6.3,2.8-6.3,6.3V345z"/>
		<path fill="#84D2F6" d="M788.4,345h12.7v-24.1c0-3.5-2.8-6.3-6.3-6.3l0,0c-3.5,0-6.3,2.8-6.3,6.3V345z"/>
		<path fill="#84D2F6" d="M767.9,345h12.7v-24.1c0-3.5-2.8-6.3-6.3-6.3l0,0c-3.5,0-6.3,2.8-6.3,6.3V345z"/>
		<path fill="#84D2F6" d="M747.4,345h12.7v-24.1c0-3.5-2.8-6.3-6.3-6.3l0,0c-3.5,0-6.3,2.8-6.3,6.3V345z"/>
	</g>
	<rect x="1179.1" y="257.7" fill="#FFFFFF" width="97.3" height="99.9"/>
	<rect x="1179.1" y="307.9" fill="#E3E3E3" width="97.3" height="49.7"/>
	<rect x="1184.7" y="213.1" fill="#676767" width="86.1" height="39"/>
	<polygon fill="#4E4E4E" points="1179.1,252.1 1179.1,208.6 1184.7,208.6 1184.7,252.1 1270.8,252.1 1270.8,208.6 1276.4,208.6 
		1276.4,252.1 1276.4,252.1 1276.4,257.7 1179.1,257.7 1179.1,252.1 	"/>
	<rect x="1239.5" y="201.7" fill="#F0EFEF" width="10.5" height="28.7"/>
	<g>
		<path fill="#84D2F6" d="M1252.1,300.3h12.7v-24.1c0-3.5-2.8-6.3-6.3-6.3l0,0c-3.5,0-6.3,2.8-6.3,6.3V300.3z"/>
		<path fill="#84D2F6" d="M1231.7,300.3h12.7v-24.1c0-3.5-2.8-6.3-6.3-6.3l0,0c-3.5,0-6.3,2.8-6.3,6.3V300.3z"/>
		<path fill="#84D2F6" d="M1211.2,300.3h12.7v-24.1c0-3.5-2.8-6.3-6.3-6.3l0,0c-3.5,0-6.4,2.8-6.4,6.3V300.3z"/>
		<path fill="#84D2F6" d="M1190.7,300.3h12.7v-24.1c0-3.5-2.8-6.3-6.3-6.3l0,0c-3.5,0-6.3,2.8-6.3,6.3V300.3z"/>
	</g>
	<g>
		<path fill="#84D2F6" d="M1252.1,344.7h12.7v-24.1c0-3.5-2.8-6.3-6.3-6.3l0,0c-3.5,0-6.3,2.8-6.3,6.3V344.7z"/>
		<path fill="#84D2F6" d="M1231.7,344.7h12.7v-24.1c0-3.5-2.8-6.3-6.3-6.3l0,0c-3.5,0-6.3,2.8-6.3,6.3V344.7z"/>
		<path fill="#84D2F6" d="M1211.2,344.7h12.7v-24.1c0-3.5-2.8-6.3-6.3-6.3l0,0c-3.5,0-6.4,2.8-6.4,6.3V344.7z"/>
		<path fill="#84D2F6" d="M1190.7,344.7h12.7v-24.1c0-3.5-2.8-6.3-6.3-6.3l0,0c-3.5,0-6.3,2.8-6.3,6.3V344.7z"/>
	</g>
	<rect x="571.2" y="288.7" fill="#C9C9C9" width="97.3" height="69"/>
	<rect x="576.8" y="244.1" fill="#676767" width="86.1" height="39"/>
	<polygon fill="#969696" points="571.2,283.1 571.2,239.6 576.8,239.6 576.8,283.1 662.9,283.1 662.9,239.6 668.5,239.6 
		668.5,283.1 668.5,283.1 668.5,288.7 571.2,288.7 571.2,283.1 	"/>
	<rect x="596.4" y="232.6" fill="#F0EFEF" width="10.5" height="28.7"/>
	<g>
		<path fill="#84D2F6" d="M644.2,332h12.7v-24.1c0-3.5-2.8-6.3-6.3-6.3l0,0c-3.5,0-6.3,2.8-6.3,6.3V332z"/>
		<path fill="#84D2F6" d="M623.8,332h12.7v-24.1c0-3.5-2.8-6.3-6.3-6.3l0,0c-3.5,0-6.3,2.8-6.3,6.3V332z"/>
		<path fill="#84D2F6" d="M603.3,332H616v-24.1c0-3.5-2.8-6.3-6.3-6.3l0,0c-3.5,0-6.3,2.8-6.3,6.3V332z"/>
		<path fill="#84D2F6" d="M582.8,332h12.7v-24.1c0-3.5-2.8-6.3-6.3-6.3l0,0c-3.5,0-6.3,2.8-6.3,6.3V332z"/>
	</g>
	<rect x="571.2" y="342.2" fill="#B0B1B1" width="97.3" height="15.4"/>
	<polygon fill="#E3E3E3" points="906.1,236.4 906.1,199.6 808.8,199.6 808.8,321.8 808.8,321.8 808.8,357.6 906.1,357.6 
		906.1,236.4 	"/>
	<path fill="#71827D" d="M833.1,300.6h-12.7v-24.1c0-3.5,2.8-6.3,6.3-6.3l0,0c3.5,0,6.3,2.8,6.3,6.3V300.6z"/>
	<path fill="#71827D" d="M853.6,300.6h-12.7v-24.1c0-3.5,2.8-6.3,6.3-6.3l0,0c3.5,0,6.3,2.8,6.3,6.3V300.6z"/>
	<path fill="#71827D" d="M874.1,300.6h-12.7v-24.1c0-3.5,2.8-6.3,6.3-6.3l0,0c3.5,0,6.3,2.8,6.3,6.3V300.6z"/>
	<path fill="#71827D" d="M894.5,300.6h-12.7v-24.1c0-3.5,2.8-6.3,6.3-6.3l0,0c3.5,0,6.3,2.8,6.3,6.3V300.6z"/>
	<rect x="820.4" y="314.5" fill="#84D2F6" width="12.7" height="24.1"/>
	<rect x="840.9" y="314.5" fill="#84D2F6" width="12.7" height="24.1"/>
	<rect x="861.4" y="314.5" fill="#84D2F6" width="12.7" height="24.1"/>
	<rect x="881.8" y="314.5" fill="#84D2F6" width="12.7" height="24.1"/>
	<rect x="806" y="344.7" fill="#B0B1B1" width="102.9" height="12.9"/>
	<rect x="814.5" y="157.1" fill="#C9C9C9" width="86.1" height="39"/>
	<polygon fill="#F0EFEF" points="808.9,196.1 808.9,152.6 814.5,152.6 814.5,196.1 900.5,196.1 900.5,152.6 906.1,152.6 
		906.1,196.1 906.1,196.1 906.1,201.7 808.8,201.7 808.8,196.1 	"/>
	<rect x="873.4" y="145.7" fill="#FFFFFF" width="5.3" height="28.7"/>
	<rect x="882.9" y="145.7" fill="#FFFFFF" width="5.3" height="28.7"/>
	<path fill="#84D2F6" d="M881.8,257h12.7v-24.1c0-3.5-2.8-6.3-6.3-6.3l0,0c-3.5,0-6.3,2.8-6.3,6.3V257z"/>
	<path fill="#84D2F6" d="M861.4,257h12.7v-24.1c0-3.5-2.8-6.3-6.3-6.3l0,0c-3.5,0-6.3,2.8-6.3,6.3V257z"/>
	<path fill="#84D2F6" d="M840.9,257h12.7v-24.1c0-3.5-2.8-6.3-6.3-6.3l0,0c-3.5,0-6.3,2.8-6.3,6.3V257z"/>
	<path fill="#84D2F6" d="M820.4,257h12.7v-24.1c0-3.5-2.8-6.3-6.3-6.3l0,0c-3.5,0-6.3,2.8-6.3,6.3V257z"/>
	<path fill="#84D2F6" d="M881.8,301.4h12.7v-24.9c0-3.6-2.8-6.6-6.3-6.6l0,0c-3.5,0-6.3,2.9-6.3,6.6V301.4z"/>
	<path fill="#84D2F6" d="M861.4,301.4h12.7v-24.9c0-3.6-2.8-6.6-6.3-6.6l0,0c-3.5,0-6.3,2.9-6.3,6.6V301.4z"/>
	<path fill="#84D2F6" d="M840.9,301.4h12.7v-24.9c0-3.6-2.8-6.6-6.3-6.6l0,0c-3.5,0-6.3,2.9-6.3,6.6V301.4z"/>
	<path fill="#84D2F6" d="M820.4,301.4h12.7v-24.9c0-3.6-2.8-6.6-6.3-6.6l0,0c-3.5,0-6.3,2.9-6.3,6.6V301.4z"/>
	<path fill="#41B655" d="M1347.4,317.3c0,10.4-8.4,18.8-18.8,18.8s-18.8-8.4-18.8-18.8c0-10.4,8.4-18.8,18.8-18.8
		S1347.4,306.9,1347.4,317.3z"/>
	<g>
		<path fill="#378F43" d="M1328.5,336.1v-37.7c-10.4,0-18.8,8.4-18.8,18.8C1309.7,327.7,1318.1,336.1,1328.5,336.1z"/>
	</g>
	<rect x="1326" y="325.5" fill="#6C4E2B" width="5" height="32.1"/>
	<polygon fill="#FFFFFF" points="707,357.6 753.8,357.6 753.8,260.2 730.4,226 707,260.2 	"/>
	<polygon fill="#FFFFFF" points="642.5,357.6 689.2,357.6 689.2,260.2 665.8,226 642.5,260.2 	"/>
	<rect x="642.5" y="260.2" fill="#E3E3E3" width="64.6" height="97.4"/>
	<polygon fill="#C9C9C9" points="665.8,226 730.4,226 707,260.2 642.5,260.2 	"/>
	<rect x="707" y="351.6" fill="#C9C9C9" width="46.7" height="6"/>
	<rect x="642.5" y="351.6" fill="#969696" width="64.6" height="6"/>
	<rect x="671.2" y="219.2" fill="#E3E3E3" width="5.3" height="26.8"/>
	<rect x="681.4" y="219.2" fill="#E3E3E3" width="5.3" height="26.8"/>
	<g>
		<rect x="685.3" y="320.5" fill="#84D2F6" width="9.4" height="27.1"/>
		<rect x="670" y="320.5" fill="#84D2F6" width="9.4" height="27.1"/>
		<rect x="654.8" y="320.5" fill="#84D2F6" width="9.4" height="27.1"/>
	</g>
	<g>
		<rect x="685.3" y="271.3" fill="#84D2F6" width="9.4" height="27.1"/>
		<rect x="670" y="271.3" fill="#84D2F6" width="9.4" height="27.1"/>
		<rect x="654.8" y="271.3" fill="#84D2F6" width="9.4" height="27.1"/>
	</g>
	<polygon fill="#6F6459" points="703.2,260.2 707,260.2 730.4,226 726.5,226 	"/>
	<rect x="645.8" y="256.4" fill="#6F6459" width="60.9" height="3.8"/>
	<polygon fill="#F0EFEF" points="642.5,260.2 646.3,260.2 669.7,226 665.8,226 	"/>
	<circle fill="#84D2F6" cx="730.4" cy="255.3" r="5"/>
	<polygon fill="#B0B1B1" points="1164.9,357.6 1207.1,357.6 1207.1,274.7 1186,243.8 1164.9,274.7 	"/>
	<polygon fill="#FFFFFF" points="1106.6,357.6 1148.8,357.6 1148.8,274.7 1127.7,243.8 1106.6,274.7 	"/>
	<rect x="1106.6" y="274.7" fill="#E3E3E3" width="58.3" height="82.9"/>
	<polygon fill="#C9C9C9" points="1127.7,243.8 1186,243.8 1164.9,274.7 1106.6,274.7 	"/>
	<rect x="1132.6" y="237.7" fill="#F0EFEF" width="4.8" height="24.2"/>
	<rect x="1141.7" y="237.7" fill="#F0EFEF" width="4.8" height="24.2"/>
	<polygon fill="#F0EFEF" points="1161.4,274.7 1164.9,274.7 1186,243.8 1182.5,243.8 	"/>
	<rect x="1109.6" y="271.3" fill="#F0EFEF" width="55" height="3.4"/>
	<polygon fill="#F0EFEF" points="1106.6,274.7 1110.1,274.7 1131.2,243.8 1127.7,243.8 	"/>
	<g>
		<path fill="#84D2F6" d="M1128.8,349.9h-11.4V329c0-3.2,2.6-5.7,5.7-5.7l0,0c3.2,0,5.7,2.6,5.7,5.7V349.9z"/>
		<path fill="#84D2F6" d="M1154.1,349.9h-11.4V329c0-3.2,2.6-5.7,5.7-5.7l0,0c3.2,0,5.7,2.6,5.7,5.7V349.9z"/>
	</g>
	<g>
		<path fill="#84D2F6" d="M1128.8,312.1h-11.4v-20.9c0-3.2,2.6-5.7,5.7-5.7l0,0c3.2,0,5.7,2.6,5.7,5.7V312.1z"/>
		<path fill="#84D2F6" d="M1154.1,312.1h-11.4v-20.9c0-3.2,2.6-5.7,5.7-5.7l0,0c3.2,0,5.7,2.6,5.7,5.7V312.1z"/>
	</g>
	<rect x="1022.5" y="213.6" fill="#C9C9C9" width="97.3" height="144"/>
	<rect x="1028.1" y="169" fill="#676767" width="86.1" height="39"/>
	<polygon fill="#4E4E4E" points="1119.8,208 1119.8,164.5 1114.2,164.5 1114.2,208 1028.1,208 1028.1,164.5 1022.5,164.5 
		1022.5,208 1022.5,208 1022.5,213.6 1119.8,213.6 1119.8,208 	"/>
	<rect x="1084" y="157.6" fill="#4E4E4E" width="10.6" height="28.7"/>
	<g>
		<path fill="#84D2F6" d="M1046.8,256.2h-12.7v-24.1c0-3.5,2.8-6.3,6.3-6.3l0,0c3.5,0,6.3,2.8,6.3,6.3V256.2z"/>
		<path fill="#84D2F6" d="M1067.2,256.2h-12.7v-24.1c0-3.5,2.8-6.3,6.3-6.3l0,0c3.5,0,6.3,2.8,6.3,6.3V256.2z"/>
		<path fill="#84D2F6" d="M1087.7,256.2H1075v-24.1c0-3.5,2.8-6.3,6.3-6.3l0,0c3.5,0,6.3,2.8,6.3,6.3V256.2z"/>
		<path fill="#84D2F6" d="M1108.2,256.2h-12.7v-24.1c0-3.5,2.8-6.3,6.3-6.3l0,0c3.5,0,6.3,2.8,6.3,6.3V256.2z"/>
	</g>
	<g>
		<path fill="#84D2F6" d="M1046.8,300.6h-12.7v-24.1c0-3.5,2.8-6.3,6.3-6.3l0,0c3.5,0,6.3,2.8,6.3,6.3V300.6z"/>
		<path fill="#84D2F6" d="M1067.2,300.6h-12.7v-24.1c0-3.5,2.8-6.3,6.3-6.3l0,0c3.5,0,6.3,2.8,6.3,6.3V300.6z"/>
		<path fill="#84D2F6" d="M1087.7,300.6H1075v-24.1c0-3.5,2.8-6.3,6.3-6.3l0,0c3.5,0,6.3,2.8,6.3,6.3V300.6z"/>
		<path fill="#84D2F6" d="M1108.2,300.6h-12.7v-24.1c0-3.5,2.8-6.3,6.3-6.3l0,0c3.5,0,6.3,2.8,6.3,6.3V300.6z"/>
	</g>
	<g>
		<rect x="1034.1" y="314.5" fill="#84D2F6" width="12.7" height="24.1"/>
		<rect x="1054.6" y="314.5" fill="#84D2F6" width="12.7" height="24.1"/>
		<rect x="1075" y="314.5" fill="#84D2F6" width="12.7" height="24.1"/>
		<rect x="1095.5" y="314.5" fill="#84D2F6" width="12.7" height="24.1"/>
	</g>
	<rect x="1019.7" y="344.7" fill="#969696" width="102.9" height="12.9"/>
	<rect x="932.1" y="214.4" fill="#F0EFEF" width="96.7" height="143.2"/>
	<rect x="999.4" y="189.5" fill="#333333" width="10.5" height="25"/>
	<rect x="988.8" y="181.1" fill="#333333" width="6.9" height="33.4"/>
	<g>
		<path fill="#84D2F6" d="M956.2,255.4h-12.6v-24c0-3.5,2.8-6.3,6.3-6.3l0,0c3.5,0,6.3,2.8,6.3,6.3V255.4z"/>
		<path fill="#84D2F6" d="M976.6,255.4H964v-24c0-3.5,2.8-6.3,6.3-6.3l0,0c3.5,0,6.3,2.8,6.3,6.3V255.4z"/>
		<path fill="#84D2F6" d="M997,255.4h-12.6v-24c0-3.5,2.8-6.3,6.3-6.3l0,0c3.5,0,6.3,2.8,6.3,6.3V255.4z"/>
		<path fill="#84D2F6" d="M1017.3,255.4h-12.6v-24c0-3.5,2.8-6.3,6.3-6.3l0,0c3.5,0,6.3,2.8,6.3,6.3V255.4z"/>
	</g>
	<g>
		<path fill="#84D2F6" d="M956.2,302.3h-12.6v-24c0-3.5,2.8-6.3,6.3-6.3l0,0c3.5,0,6.3,2.8,6.3,6.3V302.3z"/>
		<path fill="#84D2F6" d="M976.6,302.3H964v-24c0-3.5,2.8-6.3,6.3-6.3l0,0c3.5,0,6.3,2.8,6.3,6.3V302.3z"/>
		<path fill="#84D2F6" d="M997,302.3h-12.6v-24c0-3.5,2.8-6.3,6.3-6.3l0,0c3.5,0,6.3,2.8,6.3,6.3V302.3z"/>
		<path fill="#84D2F6" d="M1017.3,302.3h-12.6v-24c0-3.5,2.8-6.3,6.3-6.3l0,0c3.5,0,6.3,2.8,6.3,6.3V302.3z"/>
	</g>
	<g>
		<rect x="943.6" y="314.8" fill="#676767" width="73.7" height="24"/>
	</g>
	<rect x="929.3" y="342.8" fill="#B0B1B1" width="102.3" height="14.9"/>
	<rect x="929.3" y="261.3" fill="#969696" width="102.3" height="4.8"/>
	<rect x="929.3" y="212" fill="#969696" width="102.3" height="4.8"/>
	<rect x="927.4" y="204.3" fill="#C9C9C9" width="106.2" height="9.2"/>
	<g>
		<g>
			<circle fill="#FFFFFF" cx="1020.3" cy="328" r="2.8"/>
			<circle fill="#333333" cx="1014.7" cy="328" r="2.8"/>
			<circle fill="#FFFFFF" cx="1009" cy="328" r="2.8"/>
			<circle fill="#333333" cx="1003.3" cy="328" r="2.8"/>
			<circle fill="#FFFFFF" cx="997.6" cy="328" r="2.8"/>
			<circle fill="#333333" cx="991.9" cy="328" r="2.8"/>
			<path fill="#FFFFFF" d="M989,328c0,1.6-1.3,2.8-2.8,2.8c-1.6,0-2.8-1.3-2.8-2.8c0-1.6,1.3-2.8,2.8-2.8
				C987.8,325.2,989,326.5,989,328z"/>
			<path fill="#333333" d="M983.3,328c0,1.6-1.3,2.8-2.8,2.8c-1.6,0-2.8-1.3-2.8-2.8c0-1.6,1.3-2.8,2.8-2.8
				C982.1,325.2,983.3,326.5,983.3,328z"/>
			<circle fill="#FFFFFF" cx="974.8" cy="328" r="2.8"/>
			<circle fill="#333333" cx="969.1" cy="328" r="2.8"/>
			<circle fill="#FFFFFF" cx="963.4" cy="328" r="2.8"/>
			<circle fill="#333333" cx="957.7" cy="328" r="2.8"/>
			<circle fill="#FFFFFF" cx="952" cy="328" r="2.8"/>
			<circle fill="#333333" cx="946.3" cy="328" r="2.8"/>
			<circle fill="#FFFFFF" cx="940.6" cy="328" r="2.8"/>
		</g>
		<rect x="937.8" y="309.8" fill="#969696" width="85.4" height="18.2"/>
	</g>
	<path fill="#41B655" d="M1141.6,323.8c0,8.8-7.1,15.9-15.9,15.9c-8.8,0-15.9-7.1-15.9-15.9c0-8.8,7.1-15.9,15.9-15.9
		C1134.4,307.9,1141.6,315,1141.6,323.8z"/>
	<g>
		<path fill="#378F43" d="M1125.7,339.7v-31.7c-8.8,0-15.9,7.1-15.9,15.9C1109.8,332.6,1116.9,339.7,1125.7,339.7z"/>
	</g>
	<rect x="1123.6" y="330.7" fill="#6C4E2B" width="4.2" height="26.9"/>
	<path fill="#41B655" d="M1323.2,323.8c0,8.8-7.1,15.9-15.9,15.9c-8.8,0-15.9-7.1-15.9-15.9c0-8.8,7.1-15.9,15.9-15.9
		C1316.1,307.9,1323.2,315,1323.2,323.8z"/>
	<g>
		<path fill="#378F43" d="M1307.3,339.7v-31.7c-8.8,0-15.9,7.1-15.9,15.9C1291.4,332.6,1298.6,339.7,1307.3,339.7z"/>
	</g>
	<rect x="1305.2" y="330.7" fill="#6C4E2B" width="4.2" height="26.9"/>
	<path fill="#41B655" d="M934.9,323.8c0,8.8-7.1,15.9-15.9,15.9c-8.8,0-15.9-7.1-15.9-15.9c0-8.8,7.1-15.9,15.9-15.9
		C927.8,307.9,934.9,315,934.9,323.8z"/>
	<g>
		<path fill="#378F43" d="M919,339.7v-31.7c-8.8,0-15.9,7.1-15.9,15.9C903.2,332.6,910.3,339.7,919,339.7z"/>
	</g>
	<rect x="916.9" y="330.7" fill="#6C4E2B" width="4.2" height="26.9"/>
	<path fill="#41B655" d="M912.3,317.3c0,10.4-8.4,18.8-18.8,18.8c-10.4,0-18.8-8.4-18.8-18.8c0-10.4,8.4-18.8,18.8-18.8
		C903.9,298.5,912.3,306.9,912.3,317.3z"/>
	<g>
		<path fill="#378F43" d="M893.5,336.1v-37.7c-10.4,0-18.8,8.4-18.8,18.8C874.6,327.7,883.1,336.1,893.5,336.1z"/>
	</g>
	<rect x="891" y="325.5" fill="#6C4E2B" width="5" height="32.1"/>
	<path fill="#D1DE46" d="M587.5,317.3c0,10.4-8.4,18.8-18.8,18.8c-10.4,0-18.8-8.4-18.8-18.8c0-10.4,8.4-18.8,18.8-18.8
		C579.1,298.5,587.5,306.9,587.5,317.3z"/>
	<g>
		<path fill="#95BA3D" d="M568.7,336.1v-37.7c-10.4,0-18.8,8.4-18.8,18.8C549.9,327.7,558.3,336.1,568.7,336.1z"/>
	</g>
	<rect x="566.2" y="325.5" fill="#6C4E2B" width="5" height="32.1"/>
	<path fill="#D1DE46" d="M562.1,325.1c0,8.8-7.1,15.9-15.9,15.9c-8.8,0-15.9-7.1-15.9-15.9c0-8.8,7.1-15.9,15.9-15.9
		C555,309.3,562.1,316.4,562.1,325.1z"/>
	<g>
		<path fill="#95BA3D" d="M546.3,341v-31.7c-8.8,0-15.9,7.1-15.9,15.9C530.4,333.9,537.5,341,546.3,341z"/>
	</g>
	<rect x="544.2" y="332" fill="#6C4E2B" width="4.2" height="25.6"/>
	<polygon fill="#C9C9C9" points="536.5,357.6 578.7,357.6 578.7,308.1 557.6,277.2 536.5,308.1 	"/>
	<polygon fill="#FFFFFF" points="478.2,357.6 520.4,357.6 520.4,308.1 499.3,277.2 478.2,308.1 	"/>
	<rect x="478.2" y="308.1" fill="#F0EFEF" width="58.3" height="49.5"/>
	<polygon fill="#C9C9C9" points="499.3,277.2 557.6,277.2 536.5,308.1 478.2,308.1 	"/>
	<polygon fill="#524A44" points="533,308.1 536.5,308.1 557.6,277.2 554.1,277.2 	"/>
	<rect x="481.2" y="304.7" fill="#524A44" width="55" height="3.4"/>
	<polygon fill="#524A44" points="478.2,308.1 481.7,308.1 502.8,277.2 499.3,277.2 	"/>
	<g>
		<path fill="#84D2F6" d="M495.7,345.5h-11.4v-20.9c0-3.2,2.6-5.7,5.7-5.7l0,0c3.2,0,5.7,2.6,5.7,5.7V345.5z"/>
		<path fill="#84D2F6" d="M530.4,345.5h-11.4v-20.9c0-3.2,2.6-5.7,5.7-5.7l0,0c3.2,0,5.7,2.6,5.7,5.7V345.5z"/>
		<path fill="#84D2F6" d="M513.1,345.5h-11.4v-20.9c0-3.2,2.6-5.7,5.7-5.7l0,0c3.2,0,5.7,2.6,5.7,5.7V345.5z"/>
	</g>
	<path fill="#41B655" d="M606.4,316.3c0,10.4-8.4,18.8-18.8,18.8c-10.4,0-18.8-8.4-18.8-18.8c0-10.4,8.4-18.8,18.8-18.8
		C598,297.5,606.4,305.9,606.4,316.3z"/>
	<g>
		<path fill="#378F43" d="M587.6,335.1v-37.7c-10.4,0-18.8,8.4-18.8,18.8C568.8,326.7,577.2,335.1,587.6,335.1z"/>
	</g>
	<polygon fill="#B0B1B1" points="396,357.6 438.1,357.6 438.1,275 417,244.1 396,275 	"/>
	<rect x="337.7" y="275" fill="#E3E3E3" width="58.3" height="82.6"/>
	<polygon fill="#C9C9C9" points="358.8,244.1 417,244.1 396,275 337.7,275 	"/>
	<polygon fill="#F0EFEF" points="392.5,275 396,275 417,244.1 413.6,244.1 	"/>
	<rect x="585.1" y="324.5" fill="#6C4E2B" width="5" height="33.1"/>
	<rect x="340.7" y="270.3" fill="#F0EFEF" width="55" height="3.4"/>
	<path fill="#41B655" d="M582.2,322.8c0,8.8-7.1,15.9-15.9,15.9c-8.8,0-15.9-7.1-15.9-15.9c0-8.8,7.1-15.9,15.9-15.9
		C575.1,306.9,582.2,314,582.2,322.8z"/>
	<g>
		<path fill="#378F43" d="M566.4,338.7v-31.7c-8.8,0-15.9,7.1-15.9,15.9C550.5,331.5,557.6,338.7,566.4,338.7z"/>
	</g>
	<rect x="564.3" y="329.7" fill="#6C4E2B" width="4.2" height="27.9"/>
	<rect x="410.2" y="258" fill="#FFFFFF" width="97.3" height="99.6"/>
	<rect x="410.2" y="308.2" fill="#E3E3E3" width="97.3" height="49.4"/>
	<rect x="415.8" y="213.4" fill="#676767" width="86.1" height="39"/>
	<rect x="470.5" y="202" fill="#F0EFEF" width="10.5" height="28.7"/>
	<g>
		<path fill="#84D2F6" d="M483.2,300.6h12.7v-24.1c0-3.5-2.8-6.3-6.3-6.3l0,0c-3.5,0-6.3,2.8-6.3,6.3V300.6z"/>
		<path fill="#84D2F6" d="M462.7,300.6h12.7v-24.1c0-3.5-2.8-6.3-6.3-6.3l0,0c-3.5,0-6.3,2.8-6.3,6.3V300.6z"/>
		<path fill="#84D2F6" d="M442.2,300.6h12.7v-24.1c0-3.5-2.8-6.3-6.3-6.3l0,0c-3.5,0-6.4,2.8-6.4,6.3V300.6z"/>
		<path fill="#84D2F6" d="M421.8,300.6h12.7v-24.1c0-3.5-2.8-6.3-6.3-6.3l0,0c-3.5,0-6.3,2.8-6.3,6.3V300.6z"/>
	</g>
	<g>
		<path fill="#84D2F6" d="M483.2,345h12.7v-24.1c0-3.5-2.8-6.3-6.3-6.3l0,0c-3.5,0-6.3,2.8-6.3,6.3V345z"/>
		<path fill="#84D2F6" d="M462.7,345h12.7v-24.1c0-3.5-2.8-6.3-6.3-6.3l0,0c-3.5,0-6.3,2.8-6.3,6.3V345z"/>
		<path fill="#84D2F6" d="M442.2,345h12.7v-24.1c0-3.5-2.8-6.3-6.3-6.3l0,0c-3.5,0-6.4,2.8-6.4,6.3V345z"/>
		<path fill="#84D2F6" d="M421.8,345h12.7v-24.1c0-3.5-2.8-6.3-6.3-6.3l0,0c-3.5,0-6.3,2.8-6.3,6.3V345z"/>
	</g>
	<polygon fill="#4E4E4E" points="410.2,252.4 410.2,208.9 415.8,208.9 415.8,252.4 501.9,252.4 501.9,208.9 507.5,208.9 
		507.5,252.4 507.4,252.4 507.4,258 410.2,258 410.2,252.4 	"/>
	<g>
		<path fill="#95BA3D" d="M382.6,340.2v-31.7c-8.8,0-15.9,7.1-15.9,15.9C366.7,333.1,373.8,340.2,382.6,340.2z"/>
	</g>
	<polygon fill="#E3E3E3" points="39.7,357.6 0,357.6 0,307.6 19.9,276.8 39.7,307.6 	"/>
	<rect x="39.7" y="307.6" fill="#F0EFEF" width="54.9" height="50"/>
	<polygon fill="#C9C9C9" points="74.8,276.8 19.9,276.8 39.7,307.6 94.6,307.6 	"/>
	<polygon fill="#524A44" points="43,307.6 39.7,307.6 19.9,276.8 23.2,276.8 	"/>
	<g>
		<path fill="#84D2F6" d="M78.1,345h10.8v-20.9c0-3.2-2.4-5.7-5.4-5.7l0,0c-3,0-5.4,2.6-5.4,5.7V345z"/>
		<path fill="#84D2F6" d="M45.5,345h10.8v-20.9c0-3.2-2.4-5.7-5.4-5.7l0,0c-3,0-5.4,2.6-5.4,5.7V345z"/>
		<path fill="#84D2F6" d="M61.8,345h10.8v-20.9c0-3.2-2.4-5.7-5.4-5.7l0,0c-3,0-5.4,2.6-5.4,5.7V345z"/>
	</g>
	<g>
		<path fill="#84D2F6" d="M13.8,344.8h10.8V324c0-3.2-2.4-5.7-5.4-5.7l0,0c-3,0-5.4,2.6-5.4,5.7V344.8z"/>
	</g>
	<rect x="380.5" y="331.2" fill="#6C4E2B" width="4.2" height="26.4"/>
	<rect x="193.6" y="344.7" fill="#B0B1B1" width="102.9" height="12.9"/>
	<rect x="202" y="125.4" fill="#676767" width="86.1" height="39"/>
	<rect x="260.9" y="113.9" fill="#F0EFEF" width="5.3" height="28.7"/>
	<rect x="270.4" y="113.9" fill="#F0EFEF" width="5.3" height="28.7"/>
	<rect x="352.5" y="157.6" fill="#4E4E4E" width="10.6" height="28.7"/>
	<g>
		<path fill="#84D2F6" d="M359.9,348.9h-11.4V328c0-3.2,2.6-5.7,5.7-5.7l0,0c3.2,0,5.7,2.6,5.7,5.7V348.9z"/>
		<path fill="#84D2F6" d="M385.2,348.9h-11.4V328c0-3.2,2.6-5.7,5.7-5.7l0,0c3.2,0,5.7,2.6,5.7,5.7V348.9z"/>
	</g>
	<g>
		<path fill="#84D2F6" d="M359.9,311.1h-11.4v-20.9c0-3.2,2.6-5.7,5.7-5.7l0,0c3.2,0,5.7,2.6,5.7,5.7V311.1z"/>
		<path fill="#84D2F6" d="M385.2,311.1h-11.4v-20.9c0-3.2,2.6-5.7,5.7-5.7l0,0c3.2,0,5.7,2.6,5.7,5.7V311.1z"/>
	</g>
	<polygon fill="#B0B1B1" points="113.2,357.6 155.4,357.6 155.4,275.1 134.3,244.3 113.2,275.1 	"/>
	<rect x="54.9" y="275.1" fill="#E3E3E3" width="58.3" height="82.5"/>
	<polygon fill="#676767" points="76,244.3 134.3,244.3 113.2,275.1 54.9,275.1 	"/>
	<rect x="80.9" y="240.8" fill="#F0EFEF" width="4.8" height="24.2"/>
	<rect x="90" y="238.1" fill="#F0EFEF" width="4.8" height="24.2"/>
	<polygon fill="#524A44" points="109.7,277.8 113.2,277.8 134.3,246.9 130.8,246.9 	"/>
	<rect x="58" y="274.4" fill="#4E4E4E" width="55" height="3.4"/>
	<polygon fill="#676767" points="54.9,277.8 58.4,277.8 79.5,246.9 76,246.9 	"/>
	<g>
		<path fill="#84D2F6" d="M77.1,350.3H65.7v-20.9c0-3.2,2.6-5.7,5.7-5.7l0,0c3.2,0,5.7,2.6,5.7,5.7V350.3z"/>
		<path fill="#84D2F6" d="M102.5,350.3H91v-20.9c0-3.2,2.6-5.7,5.7-5.7l0,0c3.2,0,5.7,2.6,5.7,5.7V350.3z"/>
	</g>
	<g>
		<path fill="#84D2F6" d="M77.1,312.5H65.7v-20.9c0-3.2,2.6-5.7,5.7-5.7l0,0c3.2,0,5.7,2.6,5.7,5.7V312.5z"/>
		<path fill="#84D2F6" d="M102.5,312.5H91v-20.9c0-3.2,2.6-5.7,5.7-5.7l0,0c3.2,0,5.7,2.6,5.7,5.7V312.5z"/>
	</g>
	<rect x="123.4" y="213.6" fill="#C9C9C9" width="97.3" height="144"/>
	<rect x="129" y="169" fill="#969696" width="86.1" height="39"/>
	<polygon fill="#676767" points="123.4,208 123.4,164.5 129,164.5 129,208 215,208 215,164.5 220.6,164.5 220.6,208 220.6,208 
		220.6,213.6 123.3,213.6 123.3,208 	"/>
	<rect x="148.5" y="157.6" fill="#F0EFEF" width="10.5" height="28.7"/>
	<g>
		<path fill="#84D2F6" d="M196.4,256.2H209v-24.1c0-3.5-2.8-6.3-6.3-6.3l0,0c-3.5,0-6.3,2.8-6.3,6.3V256.2z"/>
		<path fill="#84D2F6" d="M175.9,256.2h12.7v-24.1c0-3.5-2.8-6.3-6.3-6.3l0,0c-3.5,0-6.3,2.8-6.3,6.3V256.2z"/>
		<path fill="#84D2F6" d="M155.4,256.2h12.7v-24.1c0-3.5-2.8-6.3-6.3-6.3l0,0c-3.5,0-6.3,2.8-6.3,6.3V256.2z"/>
		<path fill="#84D2F6" d="M135,256.2h12.7v-24.1c0-3.5-2.8-6.3-6.3-6.3l0,0c-3.5,0-6.3,2.8-6.3,6.3V256.2z"/>
	</g>
	<g>
		<path fill="#84D2F6" d="M196.4,300.6H209v-24.1c0-3.5-2.8-6.3-6.3-6.3l0,0c-3.5,0-6.3,2.8-6.3,6.3V300.6z"/>
		<path fill="#84D2F6" d="M175.9,300.6h12.7v-24.1c0-3.5-2.8-6.3-6.3-6.3l0,0c-3.5,0-6.3,2.8-6.3,6.3V300.6z"/>
		<path fill="#84D2F6" d="M155.4,300.6h12.7v-24.1c0-3.5-2.8-6.3-6.3-6.3l0,0c-3.5,0-6.3,2.8-6.3,6.3V300.6z"/>
		<path fill="#84D2F6" d="M135,300.6h12.7v-24.1c0-3.5-2.8-6.3-6.3-6.3l0,0c-3.5,0-6.3,2.8-6.3,6.3V300.6z"/>
	</g>
	<g>
		<path fill="#84D2F6" d="M196.4,345H209v-24.1c0-3.5-2.8-6.3-6.3-6.3l0,0c-3.5,0-6.3,2.8-6.3,6.3V345z"/>
		<path fill="#84D2F6" d="M175.9,345h12.7v-24.1c0-3.5-2.8-6.3-6.3-6.3l0,0c-3.5,0-6.3,2.8-6.3,6.3V345z"/>
		<path fill="#84D2F6" d="M155.4,345h12.7v-24.1c0-3.5-2.8-6.3-6.3-6.3l0,0c-3.5,0-6.3,2.8-6.3,6.3V345z"/>
		<path fill="#84D2F6" d="M135,345h12.7v-24.1c0-3.5-2.8-6.3-6.3-6.3l0,0c-3.5,0-6.3,2.8-6.3,6.3V345z"/>
	</g>
	<polygon fill="#E3E3E3" points="293.7,213.6 293.7,170 196.4,170 196.4,315 196.4,315 196.4,357.6 293.7,357.6 293.7,213.6 	"/>
	<path fill="#71827D" d="M220.6,300.6H208v-24.1c0-3.5,2.8-6.3,6.3-6.3l0,0c3.5,0,6.3,2.8,6.3,6.3V300.6z"/>
	<path fill="#71827D" d="M241.1,300.6h-12.7v-24.1c0-3.5,2.8-6.3,6.3-6.3l0,0c3.5,0,6.3,2.8,6.3,6.3V300.6z"/>
	<path fill="#71827D" d="M261.6,300.6h-12.7v-24.1c0-3.5,2.8-6.3,6.3-6.3l0,0c3.5,0,6.3,2.8,6.3,6.3V300.6z"/>
	<path fill="#71827D" d="M282.1,300.6h-12.7v-24.1c0-3.5,2.8-6.3,6.3-6.3l0,0c3.5,0,6.3,2.8,6.3,6.3V300.6z"/>
	<rect x="208" y="314.5" fill="#84D2F6" width="12.7" height="24.1"/>
	<rect x="228.4" y="314.5" fill="#84D2F6" width="12.7" height="24.1"/>
	<rect x="248.9" y="314.5" fill="#84D2F6" width="12.7" height="24.1"/>
	<rect x="269.4" y="314.5" fill="#84D2F6" width="12.7" height="24.1"/>
	<polygon fill="#4E4E4E" points="196.4,164.4 196.4,120.9 202,120.9 202,164.4 288.1,164.4 288.1,120.9 293.7,120.9 293.7,164.4 
		293.6,164.4 293.6,170 196.4,170 196.4,164.4 	"/>
	<path fill="#84D2F6" d="M269.4,212.6h12.7v-24.1c0-3.5-2.8-6.3-6.3-6.3l0,0c-3.5,0-6.3,2.8-6.3,6.3V212.6z"/>
	<path fill="#84D2F6" d="M248.9,212.6h12.7v-24.1c0-3.5-2.8-6.3-6.3-6.3l0,0c-3.5,0-6.3,2.8-6.3,6.3V212.6z"/>
	<path fill="#84D2F6" d="M228.4,212.6h12.7v-24.1c0-3.5-2.8-6.3-6.3-6.3l0,0c-3.5,0-6.3,2.8-6.3,6.3V212.6z"/>
	<path fill="#84D2F6" d="M208,212.6h12.7v-24.1c0-3.5-2.8-6.3-6.3-6.3l0,0c-3.5,0-6.3,2.8-6.3,6.3V212.6z"/>
	<path fill="#84D2F6" d="M269.4,257h12.7v-24.1c0-3.5-2.8-6.3-6.3-6.3l0,0c-3.5,0-6.3,2.8-6.3,6.3V257z"/>
	<path fill="#84D2F6" d="M248.9,257h12.7v-24.1c0-3.5-2.8-6.3-6.3-6.3l0,0c-3.5,0-6.3,2.8-6.3,6.3V257z"/>
	<path fill="#84D2F6" d="M228.4,257h12.7v-24.1c0-3.5-2.8-6.3-6.3-6.3l0,0c-3.5,0-6.3,2.8-6.3,6.3V257z"/>
	<path fill="#84D2F6" d="M208,257h12.7v-24.1c0-3.5-2.8-6.3-6.3-6.3l0,0c-3.5,0-6.3,2.8-6.3,6.3V257z"/>
	<path fill="#84D2F6" d="M269.4,301.4h12.7v-24.9c0-3.6-2.8-6.6-6.3-6.6l0,0c-3.5,0-6.3,2.9-6.3,6.6V301.4z"/>
	<path fill="#84D2F6" d="M248.9,301.4h12.7v-24.9c0-3.6-2.8-6.6-6.3-6.6l0,0c-3.5,0-6.3,2.9-6.3,6.6V301.4z"/>
	<path fill="#84D2F6" d="M228.4,301.4h12.7v-24.9c0-3.6-2.8-6.6-6.3-6.6l0,0c-3.5,0-6.3,2.9-6.3,6.6V301.4z"/>
	<path fill="#84D2F6" d="M208,301.4h12.7v-24.9c0-3.6-2.8-6.6-6.3-6.6l0,0c-3.5,0-6.3,2.9-6.3,6.6V301.4z"/>
	<rect x="290.9" y="213.6" fill="#C9C9C9" width="97.3" height="144"/>
	<rect x="296.5" y="169" fill="#969696" width="86.1" height="39"/>
	<polygon fill="#676767" points="388.2,208 388.2,164.5 382.6,164.5 382.6,208 296.5,208 296.5,164.5 290.9,164.5 290.9,208 
		290.9,208 290.9,213.6 388.2,213.6 388.2,208 	"/>
	<g>
		<path fill="#84D2F6" d="M315.2,256.2h-12.7v-24.1c0-3.5,2.8-6.3,6.3-6.3l0,0c3.5,0,6.3,2.8,6.3,6.3V256.2z"/>
		<path fill="#84D2F6" d="M335.7,256.2H323v-24.1c0-3.5,2.8-6.3,6.3-6.3l0,0c3.5,0,6.3,2.8,6.3,6.3V256.2z"/>
		<path fill="#84D2F6" d="M356.1,256.2h-12.7v-24.1c0-3.5,2.8-6.3,6.3-6.3l0,0c3.5,0,6.3,2.8,6.3,6.3V256.2z"/>
		<path fill="#84D2F6" d="M376.6,256.2h-12.7v-24.1c0-3.5,2.8-6.3,6.3-6.3l0,0c3.5,0,6.3,2.8,6.3,6.3V256.2z"/>
	</g>
	<g>
		<path fill="#84D2F6" d="M315.2,300.6h-12.7v-24.1c0-3.5,2.8-6.3,6.3-6.3l0,0c3.5,0,6.3,2.8,6.3,6.3V300.6z"/>
		<path fill="#84D2F6" d="M335.7,300.6H323v-24.1c0-3.5,2.8-6.3,6.3-6.3l0,0c3.5,0,6.3,2.8,6.3,6.3V300.6z"/>
		<path fill="#84D2F6" d="M356.1,300.6h-12.7v-24.1c0-3.5,2.8-6.3,6.3-6.3l0,0c3.5,0,6.3,2.8,6.3,6.3V300.6z"/>
		<path fill="#84D2F6" d="M376.6,300.6h-12.7v-24.1c0-3.5,2.8-6.3,6.3-6.3l0,0c3.5,0,6.3,2.8,6.3,6.3V300.6z"/>
	</g>
	<g>
		<rect x="302.5" y="314.5" fill="#84D2F6" width="12.7" height="24.1"/>
		<rect x="323" y="314.5" fill="#84D2F6" width="12.7" height="24.1"/>
		<rect x="343.5" y="314.5" fill="#84D2F6" width="12.7" height="24.1"/>
		<rect x="363.9" y="314.5" fill="#84D2F6" width="12.7" height="24.1"/>
	</g>
	<path fill="#41B655" d="M224.9,317.3c0,10.4-8.4,18.8-18.8,18.8c-10.4,0-18.8-8.4-18.8-18.8c0-10.4,8.4-18.8,18.8-18.8
		C216.5,298.5,224.9,306.9,224.9,317.3z"/>
	<g>
		<path fill="#378F43" d="M206.1,336.1v-37.7c-10.4,0-18.8,8.4-18.8,18.8C187.3,327.7,195.7,336.1,206.1,336.1z"/>
	</g>
	<rect x="203.6" y="325.5" fill="#6C4E2B" width="5" height="32.1"/>
	<path fill="#41B655" d="M199.5,323.8c0,8.8-7.1,15.9-15.9,15.9c-8.8,0-15.9-7.1-15.9-15.9c0-8.8,7.1-15.9,15.9-15.9
		C192.4,307.9,199.5,315,199.5,323.8z"/>
	<g>
		<path fill="#378F43" d="M183.7,339.7v-31.7c-8.8,0-15.9,7.1-15.9,15.9C167.8,332.6,174.9,339.7,183.7,339.7z"/>
	</g>
	<rect x="181.6" y="330.7" fill="#6C4E2B" width="4.2" height="26.9"/>
</g>
</svg>
