<!-- Generator: Adobe Illustrator 18.0.0, SVG Export Plug-In  -->
<svg version="1.1"
	 xmlns="http://www.w3.org/2000/svg" xmlns:xlink="http://www.w3.org/1999/xlink" xmlns:a="http://ns.adobe.com/AdobeSVGViewerExtensions/3.0/"
	 x="0px" y="0px" width="1846px" height="598.3px" viewBox="0 0 1846 598.3" enable-background="new 0 0 1846 598.3"
	 xml:space="preserve">
<defs>
</defs>
<g id="Clouds_1_" opacity="0.7">
	<g>
		<path fill="#FFFFFF" d="M1678.8,585.3c0,7.2,5.6,13,12.5,13h142.3c6.9,0,12.5-5.8,12.5-13c0-7.2-5.6-13-12.5-13h-1.9
			c0.3-1.6,0.6-3.2,0.6-4.8c0-14.5-14.2-26.3-31.8-26.3c-4.4,0-8.6,0.7-12.4,2.1c-5.6-11.4-19.1-19.4-34.9-19.4
			c-20.8,0-37.6,13.9-37.6,31.1c0,1,0.1,2.1,0.2,3.1c-2.5-1.7-5.6-2.8-9-2.8c-7.8,0-14.1,5.2-14.1,11.7c0,1.9,0.6,3.8,1.7,5.4h-2.9
			C1684.4,572.2,1678.8,578.1,1678.8,585.3z"/>
	</g>
	<g>
		<path fill="#FFFFFF" d="M1681.9,150.2c0,3.9,3,7,6.8,7h76.9c3.7,0,6.8-3.2,6.8-7c0-3.9-3-7.1-6.8-7.1h-1c0.2-0.8,0.3-1.7,0.3-2.6
			c0-7.9-7.7-14.2-17.2-14.2c-2.4,0-4.7,0.4-6.7,1.1c-3-6.2-10.3-10.5-18.9-10.5c-11.2,0-20.4,7.5-20.4,16.8c0,0.6,0,1.1,0.1,1.7
			c-1.3-0.9-3-1.5-4.9-1.5c-4.2,0-7.6,2.8-7.6,6.3c0,1.1,0.3,2,0.9,2.9h-1.6C1685,143.2,1681.9,146.3,1681.9,150.2z"/>
	</g>
	<g>
		<path fill="#FFFFFF" d="M486,583.4c0,3.9,3,7,6.8,7h76.9c3.7,0,6.7-3.2,6.7-7c0-3.9-3-7.1-6.7-7.1h-1c0.2-0.8,0.3-1.7,0.3-2.6
			c0-7.9-7.7-14.2-17.2-14.2c-2.4,0-4.7,0.4-6.7,1.1c-3-6.2-10.3-10.5-18.9-10.5c-11.2,0-20.4,7.5-20.4,16.8c0,0.6,0,1.1,0.1,1.7
			c-1.3-0.9-3-1.5-4.9-1.5c-4.2,0-7.6,2.8-7.6,6.3c0,1.1,0.3,2,0.9,2.9h-1.6C489,576.3,486,579.5,486,583.4z"/>
	</g>
	<g>
		<path fill="#FFFFFF" d="M0,466.2c0,4.6,3.6,8.4,8.1,8.4h91.8c4.4,0,8.1-3.8,8.1-8.4c0-4.7-3.6-8.4-8.1-8.4h-1.2
			c0.2-1,0.4-2,0.4-3.1c0-9.4-9.2-17-20.5-17c-2.8,0-5.6,0.5-8,1.3c-3.6-7.4-12.3-12.5-22.5-12.5c-13.4,0-24.3,9-24.3,20.1
			c0,0.7,0,1.3,0.1,2c-1.6-1.1-3.6-1.8-5.8-1.8c-5,0-9.1,3.4-9.1,7.5c0,1.3,0.4,2.4,1.1,3.5H8.1C3.6,457.8,0,461.5,0,466.2z"/>
	</g>
	<g>
		<path fill="#FFFFFF" d="M248.6,247.1c0,9,7,16.2,15.6,16.2h177.3c8.6,0,15.6-7.3,15.6-16.2c0-9-7-16.2-15.6-16.2h-2.3
			c0.4-1.9,0.7-3.9,0.7-6c0-18.1-17.8-32.8-39.7-32.8c-5.5,0-10.7,0.9-15.5,2.6c-7-14.2-23.8-24.2-43.5-24.2
			c-25.9,0-46.9,17.4-46.9,38.8c0,1.3,0.1,2.6,0.2,3.8c-3.1-2.1-6.9-3.4-11.2-3.4c-9.7,0-17.6,6.5-17.6,14.5c0,2.4,0.8,4.7,2.1,6.7
			h-3.6C255.6,230.9,248.6,238.1,248.6,247.1z"/>
	</g>
	<g>
		<path fill="#FFFFFF" d="M1184.9,304c0,8.4,6.5,15.2,14.5,15.2h165.5c8,0,14.5-6.8,14.5-15.2c0-8.4-6.5-15.2-14.5-15.2h-2.2
			c0.4-1.8,0.6-3.7,0.6-5.6c0-16.9-16.6-30.6-37-30.6c-5.1,0-10,0.9-14.5,2.4c-6.5-13.3-22.2-22.6-40.6-22.6
			c-24.2,0-43.8,16.2-43.8,36.2c0,1.2,0.1,2.4,0.2,3.6c-2.9-2-6.5-3.2-10.5-3.2c-9.1,0-16.4,6.1-16.4,13.6c0,2.3,0.7,4.4,1.9,6.3
			h-3.4C1191.4,288.8,1184.9,295.6,1184.9,304z"/>
	</g>
	<g>
		<path fill="#FFFFFF" d="M622.9,50.2c0,5.9,4.6,10.6,10.2,10.6h116.1c5.6,0,10.2-4.8,10.2-10.6c0-5.9-4.6-10.6-10.2-10.6h-1.5
			c0.3-1.3,0.5-2.6,0.5-3.9c0-11.8-11.6-21.4-26-21.4c-3.6,0-7,0.6-10.1,1.7C707.5,6.6,696.4,0,683.5,0c-17,0-30.7,11.4-30.7,25.4
			c0,0.8,0.1,1.7,0.2,2.5c-2-1.4-4.5-2.3-7.4-2.3c-6.4,0-11.5,4.3-11.5,9.5c0,1.6,0.5,3.1,1.4,4.4h-2.4
			C627.5,39.5,622.9,44.3,622.9,50.2z"/>
	</g>
</g>
</svg>
