<!-- Generator: Adobe Illustrator 18.0.0, SVG Export Plug-In  -->
<svg version="1.1"
	 xmlns="http://www.w3.org/2000/svg" xmlns:xlink="http://www.w3.org/1999/xlink" xmlns:a="http://ns.adobe.com/AdobeSVGViewerExtensions/3.0/"
	 x="0px" y="0px" width="140px" height="98.8px" viewBox="0 0 140 98.8" enable-background="new 0 0 140 98.8" xml:space="preserve"
	>
<defs>
</defs>
<g>
	<path fill="#FFFFFF" d="M140,98.8c-46.8,0-93.3,0-140,0C0,65.9,0,33.3,0,0.2c1-0.1,24.8-0.3,35.6-0.1c1.9,0,4.1,0.9,5.6,2.1
		c5.2,4.3,15.4,13,15.4,13H140C140,15.2,140,71,140,98.8z M62.1,57.9c0,4.2-0.1,8.5,0,12.7c0.1,3.5,1.6,4.4,4.5,2.6
		c6.7-4.1,13.2-8.3,19.9-12.5c2.7-1.7,2.6-3.5-0.1-5.1c-6.6-4.2-13.2-8.4-19.9-12.5c-2.7-1.7-4.3-0.8-4.4,2.4
		C62,49.7,62.1,53.8,62.1,57.9z M72.4,33.5c-10.2,0-20.5-0.1-30.7,0.1c-1.5,0-4.2,0.6-4.2,2.2s2,2.5,3.9,2.5c20.6,0,41.2,0,61.8-0.1
		c1.4,0,4.2-0.7,4.2-2.4s-2.9-2.2-4.3-2.2C92.9,33.4,82.7,33.5,72.4,33.5z M72.1,81.4c10.4,0,20.7,0.1,31.1-0.1
		c1.4,0,4.3-0.7,4.3-2.3s-2.8-2.3-4.3-2.3c-20.5-0.2-40.9-0.1-61.4-0.1c-1.9,0-4.2,0.8-4.2,2.5c0,1.8,2.7,2.1,4.2,2.1
		C51.9,81.5,62,81.4,72.1,81.4z"/>
</g>
</svg>
