<!-- Generator: Adobe Illustrator 18.0.0, SVG Export Plug-In  -->
<svg version="1.1"
	 xmlns="http://www.w3.org/2000/svg" xmlns:xlink="http://www.w3.org/1999/xlink" xmlns:a="http://ns.adobe.com/AdobeSVGViewerExtensions/3.0/"
	 x="0px" y="0px" width="1920px" height="489.9px" viewBox="0 0 1920 489.9" enable-background="new 0 0 1920 489.9"
	 xml:space="preserve">
<defs>
</defs>
<g id="Mountains_copia">
	<polygon fill="#41B655" points="1919.9,489.9 1919.9,291.2 1354.8,281.3 1101.9,203.7 878,319.3 689.9,284.4 508.3,365.9
		428.8,354.2 0.1,356 0.1,489.9 	"/>
	<g>
		<path fill="#66BB6A" d="M1920,291.1v-0.8c0,0-561.2-16.1-575.7-24.1c-2.6-1.4-4.4-4.2-6.5-6.6c-23.1-27.4-46.2-54.8-69.4-82.2
			c-0.7-0.8-1.6-3-1.6-3l-119.3,113.3l-4.3,2.5l-40.1-70.8c0,0-13.9-2.1-20.8-3.2c-1-0.2-1.6,0.3-2.2,1.2
			c-9.4,12-18.8,24.1-28.2,36.1c-18.9,24.1-37.7,48.2-56.6,72.3c-1.8,2.4-3.8,4.5-5.5,7.1c-2.4,3.8-5.2,5.2-8.7,5.6
			c-16.5,2-33,4.3-49.5,6.5c-16.4,2.2-32.9,4.6-49.3,6.8c-15.4,2.1-46.1,6.2-46.1,6.2L517,404.5L0,365.5v-91l65.7,60.3l61.2-39.5
			l67.9,24.1l63.6-119l32.9,44.4l53.4,27.7l72.8-11.5l97.2,91.1c0,0,2.1,0.5,3.2-0.8C543.6,318.7,642,194.2,642,194.2L708,250
			c0,0,60-113.6,61.6-116.1c0.7-1.1,1.3-0.7,1.9,0.2c4.1,5.8,124.5,176.3,124.5,176.3s125.8-161.4,127.7-163.9
			c0.8-1,1.4-0.7,2.2-0.2c9.8,6.4,55.8,36.2,60.3,39.3c1.6,1.1,2.3,0.6,3.3-1.1c15.2-26,30.5-51.9,45.8-77.8
			c24.4-41.4,39.2-63.5,63.6-105c0.9-1.5,1.5-1.9,2.9-1.2c3.5,1.8,7.1,3.4,10.7,5.1c4,2,70.6,80.8,70.6,80.8l173.8,168.3l86.8-131.2
			l84.7,40.6l104.1,99.7l77-93.2L1920,274.5V291.1z"/>
		<g>
			<path fill="#FFFFFF" d="M725,167.9c-0.7-1.4-0.8-0.1-4.8,0.4c-4,0.5-4.8-0.4-4.8-0.4l-13.2,1.2l-9.3,0.1l-13-3.3l-0.8-1.3
				l1.4-4.9l-1.1-7.7l-3.3-2.8l-2.8,0l-2.1,1.8l-1.4,3.8l-0.9,7.9l1,2l-6.9,1.4l-8.3,2.1l-7.1,0.3l-7-0.2l-3.1,0.4l-11.9-1.3l0.5,1
				l3.2,3.3l7,1.4l0.3,1.8l-0.3,3l18.4,2.8l1.1,6.4l5,0.2l0.7,26l-1,3.3l2.1,4.1l1.3,24.7l-0.5,1.8l-2.2,2.2l-2.4,1.9l0.3,25.1
				l33.9-0.5l-0.3-23.9l-5.5-7.1l-1.7-12.9l0.4-24.7l3.1,1.9l0.8-22.3l9.2-1.7l3.2-7.5l14.9-1l-0.7-3.3l7.1-2.7
				C723.4,171.2,725.7,169.3,725,167.9z"/>
			<g>
				<path fill="#818181" d="M672.7,148.6c0.2,0.3-0.9,0.9-0.2,1.1c0.8,0.3,3.6,0.2,3.8,0.3c1.7,0.9,2.5,2.3,2.7,4.1
					c0.2,2.1,0.4,4.1,0.6,6.2c0,0.3,0,0.8-0.1,0.9c-1.2,0.8-1.3,2.8-0.6,3.9c0.6,1,2,1.1,2,1.1s0.1-6.5,0-7.9
					c-0.1-2.1-0.2-4.3-1-6.1c-0.6-1.5-1.6-3.4-3.6-3.7C674.5,148.3,673.1,148.6,672.7,148.6z"/>
				<path fill="#818181" d="M624.6,168.4c0.2,0.1,0.5,0.2,0.6,0.4c2.4,4.8,7.2,4.6,11.5,5.3c0.3,0.1,0.8-0.6,1.2-0.9
					c-0.1-0.1-0.2-0.3-0.3-0.4c-1.9-0.4-3.8-0.7-5.7-1.1c-2.2-0.4-3.9-1.3-4.9-3.3c-0.6-1.1-1.3-1.3-2.3-0.7
					C624.6,167.9,624.6,168.1,624.6,168.4z"/>
				<path fill="#818181" d="M670.4,161.8c0-1-0.2-2.1-0.1-3.1c0.1-1.9,0.1-3.8,0.6-5.6c0.3-1.1,1.5-2,2.3-3c0.4-0.5,0.7-0.8,0.7-0.8
					s-0.6-0.7-1.2-0.7c-3.6,2.1-3.8,5.6-4,9.2c-0.1,1.7,0,5.6,0,7.3c0.2,0.1,1-0.3,1.1-0.2C670.2,164.4,670,162.1,670.4,161.8
					L670.4,161.8z"/>
				<path fill="#818181" d="M670.5,276.5c-0.4-0.4-1.2-0.6-1.8-0.6c-3,0-6,0.1-8.9,0.1c-0.1-8-0.2-16-0.3-24.1
					c1-0.1,1.7-0.2,2.6-0.2c0-1,0.1-1.9,0.1-3c1-0.1,1.9-0.2,2.9-0.3c-0.1-6.4-0.4-19-0.4-19l-0.2-5.3c0,0-0.7-2.3-1.2-3.9
					c2.1,0.5,3.1-0.5,3.7-2.3c0.1-0.4,1.4-0.8,1.4-0.8s2.3,0,1.9-4.2c-0.7-7.1-0.5-36.1-1.1-43.7c-0.6,0-1.1-0.1-1.8-0.1
					c1.5,15.5,0,29.9,1.5,45.4c-1.6,0.1-1.1,0.3-2.8,0.4c-0.2,3.1-2.7,3.9-5.2,3.9c2.6,4.4,2.2,9,2.3,13.6c0.1,4.8,0.1,9.5,0.2,14.3
					c-2.8,0.5-2.8,0.5-3.1,3.2c-0.6,0.1-1.3,0.1-2.3,0.3c0.1,9.1,0.3,18.2,0.4,27.5c2.6,0,5.4,0.1,8.3-0.2
					C669.2,277.4,672.5,278.4,670.5,276.5z"/>
				<path fill="#818181" d="M665.6,274.4c1.4,0,2.5,0,3.9-0.1c-0.1-7.5-0.2-14.8-0.3-22.4c1.8,0,3.3,0,4.8-0.1
					c3.4,0,6.9-0.1,10.3-0.1c1.1,0,1.6-0.4,1.2-1.6c-7.5,0.1-15,0.2-22.5,0.3c-0.7,2.2,1.3,1.3,2.2,1.9
					C665.4,259.5,665.5,266.9,665.6,274.4z"/>
				<path fill="#818181" d="M624.8,167.7c1.7,0.1,13.7,1.6,15,1.7c3.2,0.2,10,0,10.4-0.2c-0.4-0.3-0.8-1.5-1.2-1.5
					c-2.9,0-5.7-0.1-8.7-0.1c-1.6,0-12.7-1.3-14.5-1.3c-0.5,0-0.9,0.6-1.4,0.9C624.5,167.4,624.6,167.5,624.8,167.7z"/>
				<path fill="#818181" d="M683,198.7c-0.1,1-0.4,2-0.4,2.9c0.1,11.8,0.3,23.7,0.5,35.5c0,2.7,0,5.4,0.1,8.1c0,0.7,0.3,1.4,0.5,2.1
					c0.1-0.7,0.3-1.4,0.3-2.1c-0.2-15.3-0.4-30.5-0.6-45.8C683.3,199.2,683.2,198.9,683,198.7z"/>
				<path fill="#818181" d="M685.9,191.3c-0.1,0.3-0.4,0.7-0.4,1c0,4.2,0.1,8.4,0.2,12.6c0,1,0,1.9,0.1,2.9c0,0.3,0.7,0.4,0.7,0.4
					s-0.1-11.2-0.2-16.6C686.2,191.5,686,191.4,685.9,191.3z"/>
				<path fill="#818181" d="M664.7,167.3c-0.1,0.5-0.4,1.1-0.4,1.6c0.1,6.5,0.2,12.9,0.3,19.4c0,1.5,0,3,0.1,4.4
					c0,0.4,0.8,0.6,0.8,0.6s-0.2-17.2-0.4-25.6C664.9,167.6,664.8,167.5,664.7,167.3z"/>
				<path fill="#818181" d="M664,194.2c-0.1-0.1-0.1-0.4-0.2-0.4c-0.8,0-1.6,0-2.4,0c-0.2,0-0.4,0-0.6,0c-0.1,0-0.1,0.7-0.1,0.7
					s2.2,0,3.2,0C664,194.4,664,194.3,664,194.2z"/>
				<path fill="#818181" d="M662.8,165.8c-0.1,0.5-0.4,0.9-0.4,1.4c0.1,5.5,0.1,11,0.2,16.6c0,1.3,0,2.5,0.1,3.8
					c0,0.3,0.8,0.5,0.8,0.5s-0.2-14.7-0.3-21.8C663,166.1,662.9,165.9,662.8,165.8z"/>
				<path fill="#818181" d="M663.4,188c-0.1-0.1-0.1-0.4-0.2-0.4c-0.7,0-1.3,0-2,0c-0.2,0-0.3,0-0.5,0c0,0,0,0.7,0,0.7s1.8,0,2.6,0
					C663.4,188.3,663.4,188.1,663.4,188z"/>
				<path fill="#818181" d="M666.1,196.4c-0.1-0.1-0.2-0.4-0.3-0.4c-1.3,0-2.7,0-4,0c-0.3,0-0.6,0-0.9,0c-0.1,0-0.1,0.7-0.1,0.7
					s3.6,0,5.3-0.1C666.1,196.6,666.1,196.5,666.1,196.4z"/>
				<path fill="#818181" d="M679.8,231.1c-0.1-4.9-0.1-9.8-0.2-14.7c0-0.7-0.3-1.4-0.4-2.1c-0.1,0.7-0.4,1.3-0.4,2
					c0.1,9.6,0.3,19.3,0.4,28.9c0,0.5,0,1,0.1,1.4c0.1,0.7,0.3,1.4,0.4,2.1c0.1-0.8,0.3-1.5,0.3-2.3
					C679.9,241.2,679.8,236.2,679.8,231.1C679.8,231.1,679.8,231.1,679.8,231.1z"/>
				<path fill="#818181" d="M703.8,170.9c-0.5-0.2-0.8-0.4-1.2-0.5c-0.2,0.1-0.3,0.1-0.3,0.2c-2.2,5.1-5.5,9.3-10,12.6
					c-0.4,0.3-0.6,1.1-0.9,1.6c0.6-0.1,1.3-0.1,1.8-0.4C698,181,701.7,176.6,703.8,170.9z"/>
				<path fill="#818181" d="M698.8,170.2c-0.4-0.1-0.7-0.2-1-0.3c-0.1,0.1-0.2,0.2-0.3,0.2c-1.1,4.5-3.3,8.4-6.5,11.8
					c-0.3,0.3-0.3,1-0.5,1.4c0.5-0.2,1.1-0.3,1.4-0.6C695.4,179.3,697.9,175.2,698.8,170.2z"/>
				<path fill="#818181" d="M693.8,169.3c-0.4,0-0.7,0-1,0c-0.1,0.1-0.2,0.2-0.2,0.3c-0.1,4.2-1.3,8.2-3.5,11.8
					c-0.2,0.4-0.1,0.9-0.2,1.4c0.4-0.3,0.9-0.4,1.1-0.8C692.6,178.1,693.9,174,693.8,169.3z"/>
				<path fill="#818181" d="M675.8,232.5c-0.1-4.5-0.1-9-0.2-13.5c0-0.6-0.3-1.3-0.4-1.9c-0.1,0.6-0.4,1.2-0.4,1.8
					c0.1,8.8,0.2,17.6,0.4,26.4c0,0.4,0,0.9,0.1,1.3c0.1,0.7,0.3,1.3,0.4,1.9c0.1-0.7,0.3-1.4,0.3-2.1
					C675.9,241.8,675.8,237.2,675.8,232.5C675.8,232.5,675.8,232.5,675.8,232.5z"/>
				<path fill="#818181" d="M671.1,167.4c2.2,0,4.3-0.1,6.5-0.1c0.1-0.6,0.2-1.1,0.3-1.9c-1,0.3-1.8,0.8-2.7,0.9
					c-1,0.2-2,0.1-3.1,0.1c0-2.1-0.1-4.1-0.1-6.2c-0.4-0.1-0.6-0.1-1-0.2C671.1,159.9,671,164.8,671.1,167.4z"/>
				<path fill="#818181" d="M685.1,194c-0.4-0.3-0.8-1-1.2-0.9c-3.7,0.1-7.4,0.3-11.1,0.5c-0.1,0.2-0.2,0.4-0.3,0.5
					c0.5,0.3,0.9,0.9,1.4,0.9c3.6-0.1,7.2-0.3,10.7-0.4C684.8,194.4,684.9,194.2,685.1,194z"/>
				<path fill="#818181" d="M670.8,191.6c0.3-0.3,0.6-1,1-0.9c2.8,0.1,5.7,0.3,8.5,0.5c0.1,0.2,0.1,0.4,0.2,0.5
					c-0.4,0.3-0.7,0.9-1.1,0.9c-2.8-0.1-5.5-0.3-8.3-0.4C671,191.9,670.9,191.8,670.8,191.6z"/>
				<path fill="#818181" d="M679.9,190.4c0.1-0.2,0.3-0.6,0.4-0.6c1.6-0.3,3.2-0.5,4.8-0.7c0.1,0.1,0.1,0.2,0.2,0.3
					c-0.2,0.2-0.3,0.6-0.5,0.6c-1.5,0.3-3.1,0.5-4.6,0.7C680.1,190.6,680,190.5,679.9,190.4z"/>
				<path fill="#818181" d="M675,163.9c1.9,0.6,3.2-0.1,3.6-1.9c0.4-1.8,0.3-3.7,0.4-5.6c0-0.3-0.5-0.5-0.7-0.8
					c-0.2,0.3-0.5,0.6-0.5,0.9c0,0.8,0.2,1.6,0.1,2.4C677.8,160.8,677.7,162.8,675,163.9z"/>
			</g>
		</g>
		<path fill="#378F43" d="M0,485.9V274.5l33.3,69.2l47.9,8l61.7-40.1L233,378l35.5-40.8l29.4,43.2l33.1-38.7l43.7,11.9l40.8-32.1
			c0,0,88.9,68.4,98.7,70.9c1.4,0.4,2.6,0.1,3.8-1.2c15.2-15.7,30.3-31.2,45.5-46.9c26.7-27.5,53.5-55,80.2-82.5
			c0.8-0.8,1.6-1.4,2.6-1.4c19.5-0.7,40,0.5,59.6-0.2c1.3-0.1,2.5,0.2,3.5,1.5c15.8,18.2,30.8,34.4,46.6,52.5
			c1.6,1.8,53.4,30.3,77.5,43.1c0.9,0.5,1.8,0.7,2.8,0.6c15.4-2.1,128.4-17.5,144.9-19.5c3.5-0.4,6.4-1.8,8.7-5.6
			c1.6-2.6,3.6-4.8,5.5-7.1c18.9-24.1,75.4-96.4,84.8-108.4c0.6-0.8,1.3-1.3,2.2-1.2c6.9,1.1,20.8,3.2,20.8,3.2l40.1,64.1l4.3-2.5
			l119.3-106.5l1.6,3c23.1,27.4,46.2,54.8,69.4,82.2c2,2.4,3.9,5.2,6.5,6.6c5.5,3,187.9-41.1,187.9-41.1l39.5,51.4l57.8,1.7
			l159-39.3l58.8,46.3l72.8-10.7v40.8v170.6H0z"/>
		<path fill="#89D3E2" d="M1366.4,303.9"/>
		<path fill="#41B655" d="M1920,489.9H0l0,0V348.1l61.8,79.5l59.3-79.5l52.5,79.6l69.4-20.1l60.2,37.9l37.6-81.2l91.8,65.2l15.6,16
			l28.9-40.9l26.2,30.1l100-18.5l91.4-69.3l139.4,91.7L946.6,371l67.5,40.5l56.6-63.2c0,0,197.9,57.7,198.8,56.8
			c12.2-13,57.4-60.5,67.7-71.4c1.4-1.5,2.8-3.1,4.2-4.7c0.6-0.7,1.2-1.1,2.2-0.7c6.9,2.6,43.5,59.9,43.5,59.9l129.6-123.3
			l124.7,115.4l93.7-96.1l59.3,120.8l125.6-57V489.9z"/>
	</g>
	<polygon fill="#FFFFFF" points="1198.8,0 1237.6,20.9 1313.7,116.9 1264.7,83.8 1233.7,96.7 1200.7,74.4 1175.1,108.2 1169.3,83.9
		1125.6,123 	"/>
</g>
</svg>




