<!-- Generator: Adobe Illustrator 18.0.0, SVG Export Plug-In  -->
<svg version="1.1"
	 xmlns="http://www.w3.org/2000/svg" xmlns:xlink="http://www.w3.org/1999/xlink" xmlns:a="http://ns.adobe.com/AdobeSVGViewerExtensions/3.0/"
	 x="0px" y="0px" width="1920.3px" height="629.5px" viewBox="0 0 1920.3 629.5" enable-background="new 0 0 1920.3 629.5"
	 xml:space="preserve">
<defs>
</defs>
<g>
	<polygon fill="#41B655" points="1920.3,492.7 1920.3,291.3 1355.2,281.5 1102.1,203.8 878,319.5 689.7,284.5 508,366.2
		428.5,354.4 0.3,356.3 0,493.2 	"/>
	<g>
		<path fill="#66BB6A" d="M1920.3,291.3c-0.8,0.1-1.5-0.4-2.2-0.8c-14.5-8.1-559.1-16.1-573.6-24.1c-2.6-1.4-4.4-4.2-6.5-6.6
			c-23.1-27.4-46.3-54.8-69.4-82.2c-0.7-0.8-1.6-3-1.6-3l-119.3,113.3l-4.3,2.5l-40.1-70.9c0,0-13.9-2.1-20.8-3.2
			c-1-0.2-1.6,0.3-2.2,1.2c-9.4,12.1-18.8,24.1-28.2,36.1c-18.9,24.1-37.8,48.2-56.6,72.4c-1.8,2.4-3.8,4.5-5.5,7.1
			c-2.4,3.8-5.2,5.2-8.7,5.6c-16.5,2-33,4.3-49.6,6.5c-16.5,2.2-32.9,4.6-49.3,6.8c-15.4,2.1-30.7,4.1-46.1,6.2
			c-1,0.1-1.9-0.1-2.8-0.6c-24.2-12.8-48.3-25.6-72.5-38.4c-2-1-3.5-2.9-5.1-4.7c-15.9-18.1-31.8-26.7-47.6-44.9
			c-1.1-1.3-2.2-1.6-3.5-1.5c-19.5,0.8-39.1-8.2-58.6-7.5c-1,0-1.8,0.6-2.6,1.4c-26.7,27.5-53.5,55.1-80.2,82.6
			c-15.2,15.6-30.4,31.2-45.5,46.9c-1.2,1.2-2.3,1.5-3.8,1.2c-35.7-9-476.3-18-512-27c-0.6-0.2-1.3-0.1-1.9-0.2c0-24,0-72.1,0-72.1
			L65.2,335l61.2-39.5l68,24.1L258,200.5l36.7,34l49.6,38.2l72.8-11.5l97.3,91.1c0,0,2.1,0.5,3.2-0.8c25.8-32.6,51.6-65.1,77.4-97.6
			c0.8-1.1,1.9-1.9,2.4-3.4c3-3.8,6.1-7.6,9.1-11.4c3.4-4.3,6.9-8.5,10.3-12.7c3-3.7,5.9-7.6,8.9-11.3c3.5-4.5,7.1-8.9,10.7-13.3
			c1.9-2.4,3.8-4.8,5.6-7.3c0.8-1.1,1.4-1.3,2.5-0.6c9.6,7,19.3,14,29,21c0.5,0.4,1.1,0.6,1.6,0.8c0.3,0.3,0.5,0.6,0.8,0.8
			c9.9,7.2,19.9,14.3,29.8,21.6c1.3,0.9,1.8,0.2,2.5-1c11.9-19.9,23.8-39.8,35.7-59.7c3.5-6.1,7.1-12.1,10.7-18
			c3.6-5.8,7-11.8,10.5-17.7c1.5-2.5,3-5.1,4.5-7.6c0.7-1.1,1.3-0.7,1.9,0.2c4.5,6.3,9,12.5,13.4,18.9c2.2,3.3,4.6,6.5,6.9,9.8
			c6.8,9.6,13.7,19.2,20.5,28.8c1.8,2.5,3.3,5.5,5.4,7.6c26.2,37.1,52.3,74.1,78.5,111.2c1.3,1.9,2,1.8,3.3,0.1
			c27.8-36.7,55.7-73.4,83.5-110.1c0.5-0.7,1.1-1.2,1.4-2.2c2.4-3.4,5-6.3,7.5-9.6c5.7-7.7,11.7-15.2,17.5-22.9
			c2.9-3.8,5.9-7.7,8.7-11.7c1.9-2.7,4-5,5.9-7.6c0.8-1,1.4-0.7,2.2-0.2c9.9,6.4,19.7,12.9,29.6,19.3c4.7,3.1,9.4,6.1,14.1,9.1
			c0.4,0.3,0.8,0.4,1.3,0.6c0.6,0.5,1.2,1,1.8,1.5c4.5,3,9.1,5.8,13.6,8.9c1.6,1.1,2.3,0.6,3.3-1.1c15.3-26,30.5-51.9,45.8-77.8
			c24.4-41.4,39.2-63.6,63.6-105c0.9-1.5,1.5-1.9,2.9-1.2c3.5,1.8,7.1,3.4,10.7,5.1c4,2,70.6,80.8,70.6,80.8l173.9,168.4l86.9-131.3
			l84.8,40.6l104.2,99.7l77.1-93.3l108.4,103.3c0,0,1.1,0.9,1.8,0.7C1920.3,280.2,1920.3,285.7,1920.3,291.3z"/>
		<g>
			<path fill="#FFFFFF" d="M724.8,168c-0.7-1.4-0.8-0.1-4.8,0.4c-4,0.5-4.8-0.4-4.8-0.4l-13.2,1.2l-9.3,0.1l-13-3.3l-0.8-1.3
				l1.4-4.9l-1.1-7.7l-3.3-2.8l-2.8,0l-2.1,1.8l-1.4,3.8l-0.9,7.9l1,2l-6.9,1.4l-8.3,2.1l-7.1,0.3l-7-0.2l-3.1,0.4l-11.9-1.3l0.5,1
				l3.2,3.3l7,1.4l0.3,1.8l-0.3,3l18.4,2.8l1.1,6.4l5,0.2l0.7,26.1l-1,3.3l2.1,4.1l1.3,24.7l-0.5,1.8l-2.2,2.2l-2.4,1.9l0.3,25.1
				l33.9-0.5l-0.3-23.9l-5.5-7.1l-1.7-12.9l0.4-24.7l3.1,1.9l0.8-22.3l9.3-1.7l3.2-7.5l14.9-1l-0.7-3.3l7.1-2.7
				C723.3,171.3,725.5,169.4,724.8,168z"/>
			<g>
				<path fill="#818181" d="M672.6,148.7c0.2,0.3-0.9,0.9-0.2,1.1c0.8,0.3,3.6,0.2,3.8,0.3c1.7,0.9,2.5,2.3,2.7,4.1
					c0.2,2.1,0.4,4.1,0.6,6.2c0,0.3,0,0.8-0.1,0.9c-1.2,0.8-1.3,2.8-0.6,3.9c0.6,1,2,1.1,2,1.1s0.1-6.5,0-7.9
					c-0.1-2.1-0.2-4.3-1-6.1c-0.6-1.5-1.6-3.5-3.6-3.7C674.3,148.4,672.9,148.7,672.6,148.7z"/>
				<path fill="#818181" d="M624.4,168.5c0.2,0.1,0.5,0.2,0.6,0.4c2.4,4.8,7.2,4.6,11.5,5.3c0.3,0.1,0.8-0.6,1.2-0.9
					c-0.1-0.1-0.2-0.3-0.3-0.4c-1.9-0.4-3.8-0.7-5.7-1.1c-2.2-0.4-3.9-1.3-4.9-3.3c-0.6-1.1-1.3-1.3-2.3-0.7
					C624.4,168,624.4,168.2,624.4,168.5z"/>
				<path fill="#818181" d="M670.2,161.9c0-1-0.2-2.1-0.1-3.1c0.1-1.9,0.1-3.8,0.6-5.6c0.3-1.1,1.5-2,2.3-3c0.4-0.5,0.7-0.8,0.7-0.8
					s-0.6-0.7-1.2-0.7c-3.6,2.1-3.8,5.6-4,9.2c-0.1,1.7,0,5.6,0,7.3c0.2,0.1,1-0.3,1.1-0.2C670.1,164.5,669.9,162.3,670.2,161.9
					L670.2,161.9z"/>
				<path fill="#818181" d="M670.4,276.7c-0.4-0.4-1.2-0.6-1.8-0.6c-3,0-6,0.1-8.9,0.1c-0.1-8-0.2-16-0.3-24.1
					c1-0.1,1.7-0.2,2.6-0.2c0-1,0.1-1.9,0.1-3c1-0.1,1.9-0.2,2.9-0.3c-0.1-6.4-0.4-19-0.4-19l-0.2-5.3c0,0-0.7-2.3-1.2-3.9
					c2.1,0.5,3.1-0.5,3.7-2.3c0.1-0.4,1.4-0.8,1.4-0.8s2.3,0,1.9-4.2c-0.7-7.1-0.5-36.1-1.1-43.7c-0.6,0-1.1-0.1-1.8-0.1
					c1.5,15.5,0,29.9,1.5,45.4c-1.6,0.1-1.1,0.3-2.8,0.4c-0.2,3.1-2.7,3.9-5.2,3.9c2.6,4.4,2.2,9,2.3,13.6c0.1,4.8,0.1,9.5,0.2,14.3
					c-2.8,0.5-2.8,0.5-3.1,3.2c-0.6,0.1-1.3,0.1-2.3,0.3c0.1,9.1,0.3,18.2,0.4,27.5c2.6,0,5.5,0.1,8.3-0.2
					C669,277.6,672.3,278.5,670.4,276.7z"/>
				<path fill="#818181" d="M665.4,274.5c1.4,0,2.5,0,3.9-0.1c-0.1-7.5-0.2-14.8-0.3-22.5c1.8,0,3.3,0,4.8-0.1
					c3.4,0,6.9-0.1,10.3-0.1c1.1,0,1.6-0.4,1.2-1.6c-7.5,0.1-15,0.2-22.5,0.3c-0.7,2.2,1.3,1.3,2.2,1.9
					C665.2,259.6,665.3,267,665.4,274.5z"/>
				<path fill="#818181" d="M624.6,167.8c1.7,0.1,13.7,1.6,15,1.7c3.2,0.2,10.1,0,10.4-0.2c-0.4-0.3-0.8-1.5-1.2-1.5
					c-2.9,0-5.7-0.1-8.7-0.1c-1.6,0-12.7-1.3-14.6-1.3c-0.5,0-0.9,0.6-1.4,0.9C624.3,167.5,624.4,167.7,624.6,167.8z"/>
				<path fill="#818181" d="M682.9,198.8c-0.1,1-0.4,2-0.4,2.9c0.1,11.9,0.3,23.7,0.5,35.6c0,2.7,0,5.4,0.1,8.1
					c0,0.7,0.3,1.4,0.5,2.1c0.1-0.7,0.3-1.4,0.3-2.1c-0.2-15.3-0.4-30.5-0.6-45.8C683.1,199.3,683,199.1,682.9,198.8z"/>
				<path fill="#818181" d="M685.8,191.4c-0.1,0.3-0.4,0.7-0.4,1c0,4.2,0.1,8.4,0.2,12.6c0,1,0,1.9,0.1,2.9c0,0.3,0.8,0.4,0.8,0.4
					s-0.1-11.2-0.2-16.6C686,191.6,685.9,191.5,685.8,191.4z"/>
				<path fill="#818181" d="M664.5,167.4c-0.1,0.5-0.4,1.1-0.4,1.6c0.1,6.5,0.2,12.9,0.3,19.4c0,1.5,0,3,0.1,4.4
					c0,0.4,0.8,0.6,0.8,0.6s-0.2-17.3-0.4-25.6C664.7,167.7,664.6,167.6,664.5,167.4z"/>
				<path fill="#818181" d="M663.8,194.3c-0.1-0.1-0.1-0.4-0.2-0.4c-0.8,0-1.6,0-2.4,0c-0.2,0-0.4,0-0.6,0c-0.1,0-0.1,0.7-0.1,0.7
					s2.2,0,3.2,0C663.8,194.6,663.8,194.5,663.8,194.3z"/>
				<path fill="#818181" d="M662.6,165.9c-0.1,0.5-0.4,0.9-0.4,1.4c0.1,5.5,0.1,11.1,0.2,16.6c0,1.3,0,2.5,0.1,3.8
					c0,0.3,0.8,0.5,0.8,0.5s-0.2-14.7-0.3-21.9C662.9,166.2,662.7,166,662.6,165.9z"/>
				<path fill="#818181" d="M663.3,188.2c-0.1-0.1-0.1-0.4-0.2-0.4c-0.7,0-1.3,0-2,0c-0.2,0-0.3,0-0.5,0c0,0,0,0.7,0,0.7
					s1.8,0,2.6,0C663.2,188.4,663.3,188.3,663.3,188.2z"/>
				<path fill="#818181" d="M666,196.5c-0.1-0.1-0.2-0.4-0.3-0.4c-1.3,0-2.7,0-4,0c-0.3,0-0.6,0-0.9,0c-0.1,0-0.1,0.7-0.1,0.7
					s3.6,0,5.3-0.1C665.9,196.7,666,196.6,666,196.5z"/>
				<path fill="#818181" d="M679.7,231.2c-0.1-4.9-0.1-9.8-0.2-14.7c0-0.7-0.3-1.4-0.4-2.1c-0.1,0.7-0.4,1.3-0.4,2
					c0.1,9.6,0.3,19.3,0.4,28.9c0,0.5,0,1,0.1,1.4c0.1,0.7,0.3,1.4,0.4,2.1c0.1-0.8,0.3-1.5,0.3-2.3
					C679.8,241.4,679.7,236.3,679.7,231.2C679.6,231.2,679.6,231.2,679.7,231.2z"/>
				<path fill="#818181" d="M703.7,171.1c-0.5-0.2-0.8-0.4-1.2-0.5c-0.2,0.1-0.3,0.1-0.3,0.2c-2.2,5.1-5.5,9.3-10,12.6
					c-0.4,0.3-0.6,1.1-0.9,1.6c0.6-0.1,1.3-0.1,1.8-0.4C697.8,181.1,701.5,176.7,703.7,171.1z"/>
				<path fill="#818181" d="M698.7,170.3c-0.4-0.1-0.7-0.2-1-0.3c-0.1,0.1-0.2,0.2-0.3,0.2c-1.1,4.5-3.3,8.4-6.5,11.8
					c-0.3,0.3-0.3,1-0.5,1.4c0.5-0.2,1.1-0.3,1.4-0.6C695.3,179.4,697.7,175.3,698.7,170.3z"/>
				<path fill="#818181" d="M693.7,169.4c-0.4,0-0.7,0-1,0c-0.1,0.1-0.2,0.2-0.2,0.3c-0.1,4.2-1.3,8.2-3.5,11.8
					c-0.2,0.4-0.1,0.9-0.2,1.4c0.4-0.3,0.9-0.4,1.1-0.8C692.4,178.2,693.8,174.1,693.7,169.4z"/>
				<path fill="#818181" d="M675.7,232.7c-0.1-4.5-0.1-9-0.2-13.5c0-0.6-0.3-1.3-0.4-1.9c-0.1,0.6-0.4,1.2-0.4,1.8
					c0.1,8.8,0.2,17.6,0.4,26.5c0,0.4,0,0.9,0.1,1.3c0.1,0.7,0.3,1.3,0.4,1.9c0.1-0.7,0.3-1.4,0.3-2.1
					C675.8,242,675.7,237.3,675.7,232.7C675.6,232.7,675.7,232.7,675.7,232.7z"/>
				<path fill="#818181" d="M670.9,167.5c2.2,0,4.3-0.1,6.5-0.1c0.1-0.6,0.2-1.1,0.3-1.9c-1,0.3-1.8,0.8-2.7,0.9
					c-1,0.2-2,0.1-3.1,0.1c0-2.1-0.1-4.1-0.1-6.2c-0.4-0.1-0.6-0.1-1-0.2C671,160,670.9,164.9,670.9,167.5z"/>
				<path fill="#818181" d="M684.9,194.1c-0.4-0.3-0.8-1-1.2-0.9c-3.7,0.1-7.4,0.3-11.1,0.5c-0.1,0.2-0.2,0.4-0.3,0.5
					c0.5,0.3,0.9,0.9,1.4,0.9c3.6-0.1,7.2-0.3,10.7-0.4C684.6,194.5,684.8,194.3,684.9,194.1z"/>
				<path fill="#818181" d="M670.7,191.7c0.3-0.3,0.6-1,1-0.9c2.8,0.1,5.7,0.3,8.5,0.5c0.1,0.2,0.1,0.4,0.2,0.5
					c-0.4,0.3-0.7,0.9-1.1,0.9c-2.8-0.1-5.5-0.3-8.3-0.4C670.9,192.1,670.8,191.9,670.7,191.7z"/>
				<path fill="#818181" d="M679.8,190.5c0.1-0.2,0.3-0.6,0.4-0.6c1.6-0.3,3.2-0.5,4.8-0.7c0.1,0.1,0.1,0.2,0.2,0.3
					c-0.2,0.2-0.3,0.6-0.5,0.6c-1.5,0.3-3.1,0.5-4.6,0.7C680,190.7,679.9,190.6,679.8,190.5z"/>
				<path fill="#818181" d="M674.9,164c1.9,0.6,3.2-0.1,3.6-1.9c0.4-1.8,0.3-3.7,0.4-5.6c0-0.3-0.5-0.5-0.7-0.8
					c-0.2,0.3-0.5,0.6-0.5,0.9c0,0.8,0.2,1.6,0.1,2.4C677.6,160.9,677.5,162.9,674.9,164z"/>
			</g>
		</g>
		<path fill="#378F43" d="M1920.3,315.5c-1.3-0.6,0,142.3,0,142.3l-99.3-30.8c0,0-659.8-6.9-685.2-30.5
			c-20.5-19-22.2-129.6-42.8-148.7c-4.7-4.3-4.7-4.3-7.9,1.8c-19.9,37.5-39.9,74.9-59.5,112.7c-3.9,7.4-8.2,12-14.5,14.7
			c-20.3,8.7-40.4,18.3-60.6,27.5c-17.4,7.9-34.8,15.7-52.1,23.8c-4.2,2-8.3,2.2-12.6,1.4c-9.3-1.8-18.6-3.2-27.8-4.7
			c-8-1.4-16-2.8-24-4.1c-10.1-1.7-20.2-3.3-30.3-5c-11.2-1.9-22.4-3.8-33.6-5.7c-5.3-0.9-10.6-1.5-15.8-2.7
			c-7-1.6-13.8-4.8-20.7-7.3c-11.4-4.1-22.7-8.4-34-12.8c-1.3-0.5-2.5-0.2-3.8,0.1c-30.9,7.6-61.9,14.5-92.8,22.5
			c-28.2,7.4-56.5,14.6-84.7,21.8c-5.1,1.3-10.1,3.4-15.4,2.9c-6.4-0.7-12.9-1.4-19.3-2c-4.3-0.4-8.6-0.8-12.8-1.2
			c-6.8-0.7-13.5-1.4-20.3-2c-6.1-0.6-12.1-1.1-18.2-1.7c-6.8-0.7-13.5-1.4-20.3-2c-2.4-0.2-409.6-0.4-412-0.7c0-19.9,0-39.8,0-59.7
			c0.6,0.1,1.9,0.2,1.9,0.2l30.8-21.8l47.9,8l61.7-40.2l90.3,66.5l35.5-40.8l29.4,43.3l33.1-38.8l43.7,11.9l40.8-32.1
			c0,0,88.9,68.5,98.8,71c1.4,0.4,2.6,0.1,3.8-1.2c15.2-15.7,30.4-31.3,45.5-46.9c26.7-27.5,53.5-55,80.2-82.6
			c0.8-0.8,1.6-1.4,2.6-1.4c19.5-0.7,40.1,0.5,59.6-0.2c1.3-0.1,2.5,0.2,3.5,1.5c15.9,18.2,30.8,34.4,46.7,52.6
			c1.6,1.8,3.1,3.7,5.1,4.7c24.2,12.7,48.3,25.5,72.5,38.4c0.9,0.5,1.8,0.7,2.8,0.6c15.4-2.1,30.7-4.1,46.1-6.2
			c16.5-2.2,32.9-4.6,49.3-6.8c16.5-2.2,33-4.5,49.6-6.5c3.5-0.4,6.4-1.8,8.7-5.6c1.6-2.6,3.6-4.8,5.5-7.1
			c18.9-24.1,37.8-48.2,56.6-72.4c9.4-12,18.8-24.1,28.2-36.1c0.6-0.8,1.3-1.3,2.2-1.2c6.9,1.1,20.8,3.2,20.8,3.2l40.1,64.1l4.3-2.5
			L1267,174.5l1.6,3c23.1,27.4,46.2,54.8,69.4,82.2c2,2.4,3.9,5.2,6.5,6.6c5.5,3,188-41.1,188-41.1l39.5,51.4l57.9,1.7l159.1-39.3
			l58.8,46.3c0,0,71.8-10.6,72.6-10.7C1920.3,282.7,1920.3,307.4,1920.3,315.5z"/>
		<path fill="#89D3E2" d="M1707.9,629.5"/>
		<path fill="#89D3E2" d="M1366.6,304"/>
		<path fill="#41B655" d="M1920.3,466.7c0,0-0.2,1.7-1.6,1.7c-327.4,0-1589.8,0-1917.2,0c-1.3,0-1.6-0.3-1.6-1.7c0.1-13,0-26,0-39
			c0.4,0,36.3-34.8,36.3-34.8l25.1,34.9l59.3-79.5l52.5,79.6l69.4-20.1l60.3,37.9l37.6-81.3l70.9,28.9l21,36.4l15.6,16l22.9-13.2
			c0,0,8.6,0.6,12.8,0.9c6.4,0.5,12.9,1,19.3,1.5c5.3,0.4,10.3-1.2,15.4-2.2c28.2-5.4,56.5-10.8,84.7-16.3
			c30.9-6,61.9-11.2,92.8-16.9c1.2-0.2,2.5-0.4,3.8-0.1c11.3,3.2,22.6,6.5,34,9.6c6.9,1.9,13.6,4.3,20.7,5.5
			c5.2,0.9,10.5,1.3,15.8,2c11.2,1.4,22.4,2.9,33.6,4.3c10.1,1.3,20.2,2.5,30.3,3.8c8,1,16,2.1,24,3.1c9.3,1.2,18.6,2.2,27.8,3.6
			c4.3,0.6,8.4,0.4,12.6-1.1c17.3-6.1,34.7-11.9,52.1-17.8c20.2-6.9,40.3-14,60.6-20.6c6.3-2,10.6-5.5,14.5-11
			c19.6-28.3,39.6-56.3,59.5-84.3c3.3-4.6,3.3-4.6,7.9-1.4c20.5,14.2,41.1,28.4,61.6,42.7c25.4,17.6,50.8,35.2,76.3,52.6
			c10.2,7,20.4,14,30.5,21c1.4,0.9,2.2,0.9,3.3-0.4c1.6-1.9,3.3-3.8,5-5.6c12.2-13,24.7-25.8,36.8-38.9c10.2-11,20.6-21.7,30.9-32.5
			c1.4-1.5,2.8-3.1,4.2-4.7c0.6-0.7,1.2-1.1,2.2-0.7c6.9,2.6,43.5,59.9,43.5,59.9L1517,265.1l124.8,115.4l93.7-96.1l59.3,120.8
			l125.4-57L1920.3,466.7z"/>
	</g>
	<polygon fill="#FFFFFF" points="1199,0 1237.8,20.9 1313.9,117 1264.9,83.9 1233.9,96.7 1200.8,74.5 1175.3,108.3 1169.5,84
		1125.7,123.1 	"/>
</g>
</svg>
