<!-- Generator: Adobe Illustrator 18.0.0, SVG Export Plug-In  -->
<svg version="1.1"
	 xmlns="http://www.w3.org/2000/svg" xmlns:xlink="http://www.w3.org/1999/xlink" xmlns:a="http://ns.adobe.com/AdobeSVGViewerExtensions/3.0/"
	 x="0px" y="0px" width="1920px" height="492.9px" viewBox="0 0 1920 492.9" enable-background="new 0 0 1920 492.9"
	 xml:space="preserve">
<defs>
</defs>
<polygon fill="#41B655" points="1919.6,492.4 1919.6,291.2 1354.9,281.3 1102,203.7 878.1,319.3 689.9,284.4 508.4,365.9
	428.9,354.2 0.6,356 0.6,492.9 "/>
<path fill="#66BB6A" d="M1920,291.1v-0.8c0,0-561.2-16.1-575.7-24.1c-2.6-1.4-4.4-4.2-6.5-6.6c-23.1-27.4-46.2-54.8-69.3-82.2
	c-0.7-0.8-1.6-3-1.6-3l-119.2,113.2l-4.3,2.5l-40.1-70.8c0,0-13.9-2.1-20.8-3.2c-1-0.2-1.6,0.3-2.2,1.2c-9.4,12-18.8,24.1-28.2,36.1
	c-18.9,24.1-37.7,48.2-56.6,72.3c-1.8,2.4-3.8,4.5-5.5,7.1c-2.4,3.8-5.2,5.2-8.7,5.6c-16.5,2-33,4.3-49.5,6.5
	c-16.4,2.2-32.9,4.6-49.3,6.8c-15.4,2.1-30.7,4.1-46.1,6.2c-1,0.1-1.9-0.1-2.8-0.6c-24.1-12.8-48.3-25.6-72.4-38.3
	c-2-1-3.5-2.9-5.1-4.7c-15.9-18.1-31.7-26.6-47.6-44.8c-1.1-1.3-2.2-1.6-3.5-1.5c-19.5,0.8-39.1-8.2-58.6-7.5c-1,0-1.8,0.6-2.6,1.4
	c-26.7,27.5-53.5,55-80.2,82.5c-15.2,15.6-30.4,31.2-45.5,46.8c-1.2,1.2-2.3,1.5-3.7,1.2c-35.7-9-478.4-18-514.1-27
	c-0.6-0.2,0.6-0.1,0-0.2c0-24,0-90.8,0-90.8l65.7,60.3l61.2-39.5l67.9,24.1l63.6-119l36.7,34l49.5,38.2l72.7-11.5l97.2,91.1
	c0,0,2.1,0.5,3.2-0.8c25.8-32.6,51.5-65,77.3-97.6c0.8-1.1,1.9-1.9,2.4-3.4c3-3.8,6-7.6,9.1-11.4c3.4-4.3,6.9-8.5,10.3-12.7
	c3-3.7,5.9-7.6,8.9-11.3c3.5-4.5,7.1-8.9,10.7-13.3c1.9-2.4,3.8-4.8,5.6-7.3c0.8-1.1,1.4-1.3,2.5-0.6c9.6,7,19.3,14,28.9,21
	c0.5,0.4,1.1,0.6,1.6,0.8c0.3,0.3,0.5,0.6,0.8,0.8c9.9,7.2,19.9,14.3,29.8,21.6c1.3,0.9,1.8,0.2,2.5-1
	c11.9-19.9,23.8-39.8,35.7-59.6c3.5-6.1,7.1-12.1,10.7-18c3.6-5.8,7-11.8,10.4-17.6c1.5-2.5,3-5.1,4.5-7.6c0.7-1.1,1.3-0.7,1.9,0.2
	c4.5,6.3,9,12.5,13.4,18.9c2.2,3.3,4.6,6.5,6.9,9.8c6.8,9.6,13.6,19.2,20.5,28.8c1.8,2.5,3.3,5.5,5.4,7.6
	c26.1,37,52.3,74.1,78.4,111.1c1.3,1.9,2,1.8,3.3,0.1c27.8-36.7,55.7-73.4,83.5-110c0.5-0.7,1.1-1.2,1.4-2.2c2.4-3.4,5-6.3,7.5-9.6
	c5.7-7.7,11.7-15.2,17.5-22.9c2.9-3.8,5.9-7.7,8.7-11.7c1.9-2.7,4-5,5.9-7.6c0.8-1,1.4-0.7,2.2-0.2c9.8,6.4,19.7,12.9,29.6,19.3
	c4.7,3.1,9.4,6.1,14.1,9.1c0.4,0.3,0.8,0.4,1.3,0.5c0.6,0.5,1.2,1,1.8,1.5c4.5,3,9.1,5.8,13.6,8.9c1.6,1.1,2.3,0.6,3.3-1.1
	c15.2-26,30.5-51.9,45.8-77.8c24.4-41.4,39.2-63.5,63.6-105c0.9-1.5,1.5-1.9,2.9-1.2c3.5,1.8,7.1,3.4,10.7,5.1
	c4,2,70.6,80.8,70.6,80.8L1457,254.7l86.8-131.2l84.7,40.6l104.1,99.7l77-93.2L1920,273.7v0.7V291.1z"/>
<g>
	<path fill="#FFFFFF" d="M725.1,167.9c-0.7-1.4-0.8-0.1-4.8,0.4c-4,0.5-4.8-0.4-4.8-0.4l-13.2,1.2l-9.3,0.1l-13-3.3l-0.8-1.3
		l1.4-4.9l-1.1-7.7l-3.3-2.8l-2.8,0l-2.1,1.8l-1.4,3.8l-0.9,7.9l1,2l-6.9,1.4l-8.3,2.1l-7.1,0.3l-7-0.2l-3.1,0.4l-11.9-1.3l0.5,1
		l3.2,3.3l7,1.4l0.3,1.8l-0.3,3l18.4,2.8l1.1,6.4l5,0.2l0.7,26l-1,3.3l2.1,4.1l1.3,24.7l-0.5,1.8l-2.2,2.2l-2.4,1.9l0.3,25.1
		l33.9-0.5l-0.3-23.9l-5.5-7.1l-1.7-12.9l0.4-24.7l3.1,1.9l0.8-22.2l9.2-1.7l3.2-7.5l14.9-1l-0.7-3.3l7.1-2.7
		C723.5,171.2,725.8,169.3,725.1,167.9z"/>
	<g>
		<path fill="#818181" d="M672.8,148.6c0.2,0.3-0.9,0.9-0.2,1.1c0.8,0.3,3.6,0.2,3.8,0.3c1.7,0.9,2.5,2.3,2.7,4.1
			c0.2,2.1,0.4,4.1,0.6,6.2c0,0.3,0,0.8-0.1,0.9c-1.2,0.8-1.3,2.8-0.6,3.9c0.6,1,2,1.1,2,1.1s0.1-6.5,0-7.9c-0.1-2.1-0.2-4.3-1-6.1
			c-0.6-1.5-1.6-3.4-3.6-3.7C674.6,148.3,673.2,148.6,672.8,148.6z"/>
		<path fill="#818181" d="M624.7,168.4c0.2,0.1,0.5,0.2,0.6,0.4c2.4,4.8,7.2,4.6,11.5,5.3c0.3,0.1,0.8-0.6,1.2-0.9
			c-0.1-0.1-0.2-0.3-0.3-0.4c-1.9-0.4-3.8-0.7-5.7-1.1c-2.2-0.4-3.9-1.3-4.9-3.3c-0.6-1.1-1.3-1.3-2.3-0.7
			C624.7,167.9,624.7,168.1,624.7,168.4z"/>
		<path fill="#818181" d="M670.5,161.8c0-1-0.2-2.1-0.1-3.1c0.1-1.9,0.1-3.8,0.6-5.6c0.3-1.1,1.5-2,2.3-3c0.4-0.5,0.7-0.8,0.7-0.8
			s-0.6-0.7-1.2-0.7c-3.6,2.1-3.8,5.6-3.9,9.2c-0.1,1.7,0,5.6,0,7.3c0.2,0.1,1-0.3,1.1-0.2C670.3,164.4,670.2,162.2,670.5,161.8
			L670.5,161.8z"/>
		<path fill="#818181" d="M670.6,276.5c-0.4-0.4-1.2-0.6-1.8-0.6c-3,0-6,0.1-8.9,0.1c-0.1-8-0.2-16-0.3-24.1c1-0.1,1.7-0.2,2.6-0.2
			c0-1,0.1-1.9,0.1-3c1-0.1,1.9-0.2,2.9-0.3c-0.1-6.4-0.4-19-0.4-19l-0.2-5.3c0,0-0.7-2.3-1.2-3.9c2.1,0.5,3.1-0.5,3.7-2.3
			c0.1-0.4,1.4-0.7,1.4-0.7s2.3,0,1.9-4.2c-0.7-7.1-0.5-36.1-1.1-43.7c-0.6,0-1.1-0.1-1.8-0.1c1.5,15.5,0,29.9,1.5,45.4
			c-1.6,0.1-1.1,0.3-2.8,0.4c-0.2,3.1-2.7,3.9-5.2,3.9c2.6,4.4,2.2,9,2.3,13.6c0.1,4.8,0.1,9.5,0.2,14.3c-2.8,0.5-2.8,0.5-3.1,3.2
			c-0.6,0.1-1.3,0.1-2.3,0.3c0.1,9.1,0.3,18.2,0.4,27.5c2.6,0,5.4,0.1,8.3-0.2C669.3,277.4,672.6,278.4,670.6,276.5z"/>
		<path fill="#818181" d="M665.7,274.4c1.4,0,2.5,0,3.9-0.1c-0.1-7.5-0.2-14.8-0.3-22.4c1.8,0,3.3,0,4.8-0.1c3.4,0,6.9-0.1,10.3-0.1
			c1.1,0,1.6-0.4,1.2-1.6c-7.5,0.1-15,0.2-22.5,0.3c-0.7,2.2,1.3,1.3,2.2,1.9C665.5,259.5,665.6,266.9,665.7,274.4z"/>
		<path fill="#818181" d="M624.9,167.7c1.7,0.1,13.7,1.6,15,1.7c3.2,0.2,10,0,10.4-0.2c-0.4-0.3-0.8-1.5-1.2-1.5
			c-2.9,0-5.7-0.1-8.7-0.1c-1.6,0-12.7-1.3-14.5-1.3c-0.5,0-0.9,0.6-1.4,0.9C624.6,167.4,624.7,167.6,624.9,167.7z"/>
		<path fill="#818181" d="M683.2,198.7c-0.1,1-0.4,2-0.4,2.9c0.1,11.8,0.3,23.7,0.5,35.5c0,2.7,0,5.4,0.1,8.1c0,0.7,0.3,1.4,0.5,2.1
			c0.1-0.7,0.3-1.4,0.3-2.1c-0.2-15.3-0.4-30.5-0.6-45.8C683.4,199.2,683.3,199,683.2,198.7z"/>
		<path fill="#818181" d="M686,191.3c-0.1,0.3-0.4,0.7-0.4,1c0,4.2,0.1,8.4,0.2,12.6c0,1,0,1.9,0.1,2.9c0,0.3,0.7,0.4,0.7,0.4
			s-0.1-11.2-0.2-16.6C686.3,191.5,686.2,191.4,686,191.3z"/>
		<path fill="#818181" d="M664.8,167.3c-0.1,0.5-0.4,1.1-0.4,1.6c0.1,6.5,0.2,12.9,0.3,19.4c0,1.5,0,3,0.1,4.4
			c0,0.4,0.8,0.6,0.8,0.6s-0.2-17.2-0.3-25.6C665,167.6,664.9,167.5,664.8,167.3z"/>
		<path fill="#818181" d="M664.1,194.2c-0.1-0.1-0.1-0.4-0.2-0.4c-0.8,0-1.6,0-2.4,0c-0.2,0-0.4,0-0.6,0c-0.1,0-0.1,0.7-0.1,0.7
			s2.2,0,3.2,0C664.1,194.4,664.1,194.3,664.1,194.2z"/>
		<path fill="#818181" d="M662.9,165.8c-0.1,0.5-0.4,0.9-0.4,1.4c0.1,5.5,0.1,11,0.2,16.6c0,1.3,0,2.5,0.1,3.8
			c0,0.3,0.8,0.5,0.8,0.5s-0.2-14.7-0.3-21.8C663.1,166.1,663,165.9,662.9,165.8z"/>
		<path fill="#818181" d="M663.5,188c-0.1-0.1-0.1-0.4-0.2-0.4c-0.7,0-1.3,0-2,0c-0.2,0-0.3,0-0.5,0c0,0,0,0.7,0,0.7s1.8,0,2.6,0
			C663.5,188.3,663.5,188.2,663.5,188z"/>
		<path fill="#818181" d="M666.3,196.4c-0.1-0.1-0.2-0.4-0.3-0.4c-1.3,0-2.7,0-4,0c-0.3,0-0.6,0-0.9,0c-0.1,0-0.1,0.7-0.1,0.7
			s3.6,0,5.3-0.1C666.2,196.6,666.2,196.5,666.3,196.4z"/>
		<path fill="#818181" d="M679.9,231.1c-0.1-4.9-0.1-9.8-0.2-14.7c0-0.7-0.3-1.4-0.4-2.1c-0.1,0.7-0.4,1.3-0.4,2
			c0.1,9.6,0.3,19.3,0.4,28.9c0,0.5,0,1,0.1,1.4c0.1,0.7,0.3,1.4,0.4,2.1c0.1-0.8,0.3-1.5,0.3-2.3
			C680,241.2,679.9,236.2,679.9,231.1C679.9,231.1,679.9,231.1,679.9,231.1z"/>
		<path fill="#818181" d="M703.9,171c-0.5-0.2-0.8-0.4-1.2-0.5c-0.2,0.1-0.3,0.1-0.3,0.2c-2.2,5.1-5.5,9.3-10,12.6
			c-0.4,0.3-0.6,1.1-0.9,1.6c0.6-0.1,1.3-0.1,1.8-0.4C698.1,181,701.8,176.6,703.9,171z"/>
		<path fill="#818181" d="M699,170.2c-0.4-0.1-0.7-0.2-1-0.3c-0.1,0.1-0.2,0.2-0.3,0.2c-1.1,4.5-3.3,8.4-6.5,11.8
			c-0.3,0.3-0.3,1-0.5,1.4c0.5-0.2,1.1-0.3,1.4-0.6C695.5,179.3,698,175.2,699,170.2z"/>
		<path fill="#818181" d="M693.9,169.3c-0.4,0-0.7,0-1,0c-0.1,0.1-0.2,0.2-0.2,0.3c-0.1,4.2-1.3,8.2-3.5,11.8
			c-0.2,0.4-0.1,0.9-0.2,1.4c0.4-0.3,0.9-0.4,1.1-0.8C692.7,178.1,694,174,693.9,169.3z"/>
		<path fill="#818181" d="M675.9,232.5c-0.1-4.5-0.1-9-0.2-13.5c0-0.6-0.3-1.3-0.4-1.9c-0.1,0.6-0.4,1.2-0.4,1.8
			c0.1,8.8,0.2,17.6,0.4,26.4c0,0.4,0,0.9,0.1,1.3c0.1,0.7,0.3,1.3,0.4,1.9c0.1-0.7,0.3-1.4,0.3-2.1
			C676,241.8,676,237.2,675.9,232.5C675.9,232.5,675.9,232.5,675.9,232.5z"/>
		<path fill="#818181" d="M671.2,167.4c2.2,0,4.3-0.1,6.5-0.1c0.1-0.6,0.2-1.1,0.3-1.9c-1,0.3-1.8,0.8-2.7,0.9c-1,0.2-2,0.1-3,0.1
			c0-2.1-0.1-4.1-0.1-6.2c-0.4-0.1-0.6-0.1-1-0.2C671.3,159.9,671.2,164.8,671.2,167.4z"/>
		<path fill="#818181" d="M685.2,194c-0.4-0.3-0.8-1-1.2-0.9c-3.7,0.1-7.4,0.3-11.1,0.5c-0.1,0.2-0.2,0.4-0.3,0.5
			c0.5,0.3,0.9,0.9,1.4,0.9c3.6-0.1,7.2-0.3,10.7-0.4C684.9,194.4,685,194.2,685.2,194z"/>
		<path fill="#818181" d="M670.9,191.6c0.3-0.3,0.6-1,1-0.9c2.8,0.1,5.7,0.3,8.5,0.5c0.1,0.2,0.1,0.4,0.2,0.5
			c-0.4,0.3-0.7,0.9-1.1,0.9c-2.8-0.1-5.5-0.3-8.3-0.4C671.1,191.9,671,191.8,670.9,191.6z"/>
		<path fill="#818181" d="M680.1,190.4c0.1-0.2,0.3-0.6,0.4-0.6c1.6-0.3,3.2-0.5,4.8-0.7c0.1,0.1,0.1,0.2,0.2,0.3
			c-0.2,0.2-0.3,0.6-0.5,0.6c-1.5,0.3-3.1,0.5-4.6,0.7C680.2,190.6,680.1,190.5,680.1,190.4z"/>
		<path fill="#818181" d="M675.2,163.9c1.9,0.6,3.2-0.1,3.6-1.9c0.4-1.8,0.3-3.7,0.4-5.6c0-0.3-0.5-0.5-0.7-0.8
			c-0.2,0.3-0.5,0.6-0.5,0.9c0,0.8,0.2,1.6,0.1,2.4C677.9,160.8,677.8,162.8,675.2,163.9z"/>
	</g>
</g>
<path fill="#378F43" d="M1920,315.3v142.2l-99.4-30.8c0,0-659.4-6.9-684.8-30.4c-20.5-19-22.2-129.6-42.7-148.6
	c-4.6-4.3-4.7-4.3-7.9,1.8c-19.8,37.5-39.8,74.9-59.4,112.6c-3.9,7.4-8.2,12-14.5,14.7c-20.3,8.7-40.4,18.2-60.5,27.4
	c-17.4,7.9-34.8,15.7-52.1,23.8c-4.2,2-8.3,2.2-12.6,1.4c-9.3-1.8-18.5-3.2-27.8-4.7c-8-1.4-16-2.8-24-4.1
	c-10.1-1.7-20.2-3.3-30.3-5c-11.2-1.9-22.4-3.8-33.5-5.7c-5.3-0.9-10.6-1.5-15.8-2.7c-7-1.6-13.8-4.8-20.7-7.3
	c-11.3-4.1-22.7-8.4-34-12.8c-1.3-0.5-2.5-0.2-3.8,0.1c-30.9,7.6-61.9,14.5-92.7,22.5c-28.2,7.4-56.4,14.6-84.6,21.8
	c-5.1,1.3-10.1,3.4-15.4,2.9c-6.4-0.7-12.9-1.4-19.3-2c-4.3-0.4-8.6-0.8-12.8-1.2c-6.8-0.7-13.5-1.4-20.3-2
	c-6.1-0.6-12.1-1.1-18.2-1.7c-6.8-0.7-13.5-1.4-20.3-2c-2.4-0.2-412.3-0.7-412.3-0.7V274.5l33.3,69.2l47.8,8l61.7-40.1l90.2,66.5
	l35.5-40.8l29.4,43.2l33.1-38.7l43.7,11.9l40.8-32.1c0,0,88.9,68.4,98.7,70.9c1.4,0.4,2.6,0.1,3.7-1.2
	c15.2-15.6,30.3-31.2,45.5-46.8c26.7-27.5,53.5-55,80.2-82.5c0.8-0.8,1.6-1.4,2.6-1.4c19.5-0.7,40,0.5,59.6-0.2
	c1.3-0.1,2.5,0.2,3.5,1.5c15.8,18.2,30.7,34.4,46.6,52.5c1.6,1.8,3.1,3.7,5.1,4.7c24.2,12.7,48.3,25.5,72.4,38.3
	c0.9,0.5,1.8,0.7,2.8,0.6c15.4-2.1,30.7-4.1,46.1-6.2c16.4-2.2,32.9-4.6,49.3-6.8c16.5-2.2,33-4.5,49.5-6.5c3.5-0.4,6.4-1.8,8.7-5.6
	c1.6-2.6,3.6-4.8,5.5-7.1c18.9-24.1,37.7-48.2,56.6-72.3c9.4-12,18.8-24.1,28.2-36.1c0.6-0.8,1.3-1.3,2.2-1.2
	c6.9,1.1,20.8,3.2,20.8,3.2l40.1,64.1l4.3-2.5L1267,174.4l1.6,3c23.1,27.4,46.2,54.8,69.3,82.2c2,2.4,3.9,5.2,6.5,6.6
	c5.5,3,187.9-41.1,187.9-41.1l39.5,51.4l57.8,1.7l159-39.2l58.8,46.3l72.8-10.7V315.3z"/>
<path fill="#89D3E2" d="M1366.4,303.9"/>
<path fill="#41B655" d="M1920,466.4v1.7l-1919.8,0v-1.7V348L62,427.5l59.3-79.5l52.5,79.6l69.4-20.1l60.2,37.9l37.6-81.2l70.8,28.9
	l21,36.4l15.6,16l22.9-13.2c0,0,8.6,0.6,12.8,0.9c6.4,0.5,12.9,1,19.3,1.5c5.3,0.4,10.3-1.2,15.4-2.2c28.2-5.4,56.4-10.8,84.6-16.3
	c30.8-6,61.8-11.2,92.7-16.9c1.2-0.2,2.5-0.4,3.8-0.1c11.3,3.2,22.6,6.5,34,9.5c6.9,1.9,13.6,4.3,20.7,5.5c5.2,0.9,10.5,1.3,15.8,2
	c11.2,1.4,22.4,2.9,33.5,4.3c10.1,1.3,20.2,2.5,30.3,3.8c8,1,16,2.1,24,3.1c9.3,1.2,18.6,2.2,27.8,3.6c4.3,0.6,8.4,0.4,12.6-1.1
	c17.3-6.1,34.7-11.9,52.1-17.8c20.2-6.9,40.3-14,60.5-20.5c6.3-2,10.6-5.5,14.5-11c19.6-28.3,39.6-56.2,59.4-84.3
	c3.3-4.6,3.3-4.6,7.9-1.4c20.5,14.2,41,28.4,61.5,42.7c25.4,17.6,50.7,35.2,76.2,52.6c10.2,7,20.4,14,30.5,21
	c1.4,0.9,2.2,0.9,3.3-0.4c1.6-1.9,3.3-3.8,5-5.6c12.2-13,24.7-25.8,36.8-38.9c10.2-11,20.6-21.7,30.9-32.5c1.4-1.5,2.8-3.1,4.2-4.7
	c0.6-0.7,1.2-1.1,2.2-0.7c6.9,2.6,43.5,59.9,43.5,59.9l129.6-123.3l124.7,115.3l93.7-96.1l59.3,120.8l125.6-57V466.4z"/>
<polygon fill="#FFFFFF" points="1198.9,0 1237.7,20.9 1313.7,116.9 1264.8,83.8 1233.8,96.7 1200.7,74.4 1175.2,108.2 1169.4,83.9
	1125.7,123 "/>
</svg>


