<?xml version="1.0" encoding="utf-8"?>
<!-- Generator: Adobe Illustrator 18.0.0, SVG Export Plug-In . SVG Version: 6.00 Build 0)  -->
<!DOCTYPE svg PUBLIC "-//W3C//DTD SVG 1.1//EN" "http://www.w3.org/Graphics/SVG/1.1/DTD/svg11.dtd">
<svg version="1.1" id="Capa_1" xmlns="http://www.w3.org/2000/svg" xmlns:xlink="http://www.w3.org/1999/xlink" x="0px" y="0px"
	 viewBox="0 0 1920 502.4" enable-background="new 0 0 1920 502.4" xml:space="preserve">
<symbol  id="Mountains" viewBox="-959.9 -243.5 1920 489.9">
	<polygon fill="#41B655" points="960,-243.4 960,-44.7 394.9,-34.9 142,42.7 -81.9,-72.8 -270.1,-37.9 -451.6,-119.5 -531.1,-107.8 
		-959.8,-109.6 -959.8,-243.4 	"/>
	<g>
		<path fill="#00BC65" d="M960.1-44.7v0.8c0,0-561.2,16.1-575.7,24.1c-2.6,1.4-4.4,4.2-6.5,6.6c-23.1,27.4-46.2,54.8-69.4,82.2
			c-0.7,0.8-1.6,3-1.6,3L187.7-41.2l-4.3-2.5l-40.1,70.8c0,0-13.9,2.1-20.8,3.2c-1,0.2-1.6-0.3-2.2-1.2c-9.4-12-18.8-24.1-28.2-36.1
			C73.3-31,54.4-55.1,35.5-79.2c-1.8-2.4-3.8-4.5-5.5-7.1c-2.4-3.8-5.2-5.2-8.7-5.6c-16.5-2-33-4.3-49.5-6.5
			c-16.4-2.2-32.9-4.6-49.3-6.8c-15.4-2.1-46.1-6.2-46.1-6.2L-443-158.1l-517,39.1v91l65.7-60.3l61.2,39.5l67.9-24.1l63.6,119
			l32.9-44.4l53.4-27.7l72.8,11.5l97.2-91.1c0,0,2.1-0.5,3.2,0.8c25.8,32.6,124.2,157.1,124.2,157.1l65.9-55.8
			c0,0,60,113.6,61.6,116.1c0.7,1.1,1.3,0.7,1.9-0.2C-184.3,106.6-64-63.9-64-63.9S61.8,97.5,63.8,100c0.8,1,1.4,0.7,2.2,0.2
			c9.8-6.4,55.8-36.2,60.3-39.3c1.6-1.1,2.3-0.6,3.3,1.1c15.2,26,30.5,51.9,45.8,77.8c24.4,41.4,39.2,63.5,63.6,105
			c0.9,1.5,1.5,1.9,2.9,1.2c3.5-1.8,7.1-3.4,10.7-5.1c4-2,70.6-80.8,70.6-80.8L497-8.2L583.8,123l84.7-40.6l104.1-99.7l77,93.2
			L960.1-28V-44.7z"/>
		<g>
			<path fill="#FFFFFF" d="M-234.9,78.5c-0.7,1.4-0.8,0.1-4.8-0.4c-4-0.5-4.8,0.4-4.8,0.4l-13.2-1.2l-9.3-0.1l-13,3.3l-0.8,1.3
				l1.4,4.9l-1.1,7.7l-3.3,2.8l-2.8,0l-2.1-1.8l-1.4-3.8l-0.9-7.9l1-2l-6.9-1.4l-8.3-2.1l-7.1-0.3l-7,0.2l-3.1-0.4l-11.9,1.3l0.5-1
				l3.2-3.3l7-1.4l0.3-1.8l-0.3-3l18.4-2.8l1.1-6.4l5-0.2l0.7-26l-1-3.3l2.1-4.1l1.3-24.7l-0.5-1.8l-2.2-2.2l-2.4-1.9l0.3-25.1
				l33.9,0.5l-0.3,23.9l-5.5,7.1l-1.7,12.9l0.4,24.7l3.1-1.9l0.8,22.3l9.2,1.7l3.2,7.5l14.9,1l-0.7,3.3l7.1,2.7
				C-236.5,75.3-234.2,77.1-234.9,78.5z"/>
			<g>
				<path fill="#818181" d="M-287.2,97.9c0.2-0.3-0.9-0.9-0.2-1.1c0.8-0.3,3.6-0.2,3.8-0.3c1.7-0.9,2.5-2.3,2.7-4.1
					c0.2-2.1,0.4-4.1,0.6-6.2c0-0.3,0-0.8-0.1-0.9c-1.2-0.8-1.3-2.8-0.6-3.9c0.6-1,2-1.1,2-1.1s0.1,6.5,0,7.9
					c-0.1,2.1-0.2,4.3-1,6.1c-0.6,1.5-1.6,3.4-3.6,3.7C-285.4,98.2-286.8,97.9-287.2,97.9z"/>
				<path fill="#818181" d="M-335.3,78.1c0.2-0.1,0.5-0.2,0.6-0.4c2.4-4.8,7.2-4.6,11.5-5.3c0.3-0.1,0.8,0.6,1.2,0.9
					c-0.1,0.1-0.2,0.3-0.3,0.4c-1.9,0.4-3.8,0.7-5.7,1.1c-2.2,0.4-3.9,1.3-4.9,3.3c-0.6,1.1-1.3,1.3-2.3,0.7
					C-335.3,78.6-335.3,78.3-335.3,78.1z"/>
				<path fill="#818181" d="M-289.5,84.7c0,1-0.2,2.1-0.1,3.1c0.1,1.9,0.1,3.8,0.6,5.6c0.3,1.1,1.5,2,2.3,3c0.4,0.5,0.7,0.8,0.7,0.8
					s-0.6,0.7-1.2,0.7c-3.6-2.1-3.8-5.6-4-9.2c-0.1-1.7,0-5.6,0-7.3c0.2-0.1,1,0.3,1.1,0.2C-289.7,82-289.9,84.3-289.5,84.7
					L-289.5,84.7z"/>
				<path fill="#818181" d="M-289.4-30c-0.4,0.4-1.2,0.6-1.8,0.6c-3,0-6-0.1-8.9-0.1c-0.1,8-0.2,16-0.3,24.1c1,0.1,1.7,0.2,2.6,0.2
					c0,1,0.1,1.9,0.1,3c1,0.1,1.9,0.2,2.9,0.3c-0.1,6.4-0.4,19-0.4,19l-0.2,5.3c0,0-0.7,2.3-1.2,3.9c2.1-0.5,3.1,0.5,3.7,2.3
					c0.1,0.4,1.4,0.7,1.4,0.7s2.3,0,1.9,4.2c-0.7,7.1-0.5,36.1-1.1,43.7c-0.6,0-1.1,0.1-1.8,0.1c1.5-15.5,0-29.9,1.5-45.4
					c-1.6-0.1-1.1-0.3-2.8-0.4c-0.2-3.1-2.7-3.9-5.2-3.9c2.6-4.4,2.2-9,2.3-13.6c0.1-4.8,0.1-9.5,0.2-14.3c-2.8-0.5-2.8-0.5-3.1-3.2
					c-0.6-0.1-1.3-0.1-2.3-0.3c0.1-9.1,0.3-18.2,0.4-27.5c2.6,0,5.4-0.1,8.3,0.2C-290.7-31-287.5-31.9-289.4-30z"/>
				<path fill="#818181" d="M-294.3-27.9c1.4,0,2.5,0,3.9,0.1c-0.1,7.5-0.2,14.8-0.3,22.4c1.8,0,3.3,0,4.8,0.1
					c3.4,0,6.9,0.1,10.3,0.1c1.1,0,1.6,0.4,1.2,1.6c-7.5-0.1-15-0.2-22.5-0.3c-0.7-2.2,1.3-1.3,2.2-1.9
					C-294.5-13-294.4-20.4-294.3-27.9z"/>
				<path fill="#818181" d="M-335.2,78.7c1.7-0.1,13.7-1.6,15-1.7c3.2-0.2,10,0,10.4,0.2c-0.4,0.3-0.8,1.5-1.2,1.5
					c-2.9,0-5.7,0.1-8.7,0.1c-1.6,0-12.7,1.3-14.5,1.3c-0.5,0-0.9-0.6-1.4-0.9C-335.4,79.1-335.3,78.9-335.2,78.7z"/>
				<path fill="#818181" d="M-276.9,47.8c-0.1-1-0.4-2-0.4-2.9c0.1-11.8,0.3-23.7,0.5-35.5c0-2.7,0-5.4,0.1-8.1
					c0-0.7,0.3-1.4,0.5-2.1c0.1,0.7,0.3,1.4,0.3,2.1c-0.2,15.3-0.4,30.5-0.6,45.8C-276.6,47.2-276.7,47.5-276.9,47.8z"/>
				<path fill="#818181" d="M-274,55.2c-0.1-0.3-0.4-0.7-0.4-1c0-4.2,0.1-8.4,0.2-12.6c0-1,0-1.9,0.1-2.9c0-0.3,0.7-0.4,0.7-0.4
					s-0.1,11.2-0.2,16.6C-273.7,55-273.9,55.1-274,55.2z"/>
				<path fill="#818181" d="M-295.3,79.1c-0.1-0.5-0.4-1.1-0.4-1.6c0.1-6.5,0.2-12.9,0.3-19.4c0-1.5,0-3,0.1-4.4
					c0-0.4,0.8-0.6,0.8-0.6s-0.2,17.2-0.4,25.6C-295,78.9-295.1,79-295.3,79.1z"/>
				<path fill="#818181" d="M-295.9,52.2c-0.1,0.1-0.1,0.4-0.2,0.4c-0.8,0-1.6,0-2.4,0c-0.2,0-0.4,0-0.6,0c-0.1,0-0.1-0.7-0.1-0.7
					s2.2,0,3.2,0C-295.9,52-295.9,52.1-295.9,52.2z"/>
				<path fill="#818181" d="M-297.1,80.6c-0.1-0.5-0.4-0.9-0.4-1.4c0.1-5.5,0.1-11,0.2-16.6c0-1.3,0-2.5,0.1-3.8
					c0-0.3,0.8-0.5,0.8-0.5s-0.2,14.7-0.3,21.8C-296.9,80.4-297,80.5-297.1,80.6z"/>
				<path fill="#818181" d="M-296.5,58.4c-0.1,0.1-0.1,0.4-0.2,0.4c-0.7,0-1.3,0-2,0c-0.2,0-0.3,0-0.5,0c0,0,0-0.7,0-0.7
					s1.8,0,2.6,0C-296.5,58.2-296.5,58.3-296.5,58.4z"/>
				<path fill="#818181" d="M-293.8,50.1c-0.1,0.1-0.2,0.4-0.3,0.4c-1.3,0-2.7,0-4,0c-0.3,0-0.6,0-0.9,0c-0.1,0-0.1-0.7-0.1-0.7
					s3.6,0,5.3,0.1C-293.8,49.8-293.8,50-293.8,50.1z"/>
				<path fill="#818181" d="M-280.1,15.4c-0.1,4.9-0.1,9.8-0.2,14.7c0,0.7-0.3,1.4-0.4,2.1c-0.1-0.7-0.4-1.3-0.4-2
					c0.1-9.6,0.3-19.3,0.4-28.9c0-0.5,0-1,0.1-1.4c0.1-0.7,0.3-1.4,0.4-2.1c0.1,0.8,0.3,1.5,0.3,2.3C-280,5.2-280.1,10.3-280.1,15.4
					C-280.1,15.4-280.1,15.4-280.1,15.4z"/>
				<path fill="#818181" d="M-256.1,75.5c-0.5,0.2-0.8,0.4-1.2,0.5c-0.2-0.1-0.3-0.1-0.3-0.2c-2.2-5.1-5.5-9.3-10-12.6
					c-0.4-0.3-0.6-1.1-0.9-1.6c0.6,0.1,1.3,0.1,1.8,0.4C-261.9,65.5-258.3,69.8-256.1,75.5z"/>
				<path fill="#818181" d="M-261.1,76.2c-0.4,0.1-0.7,0.2-1,0.3c-0.1-0.1-0.2-0.2-0.3-0.2c-1.1-4.5-3.3-8.4-6.5-11.8
					c-0.3-0.3-0.3-1-0.5-1.4c0.5,0.2,1.1,0.3,1.4,0.6C-264.5,67.1-262.1,71.2-261.1,76.2z"/>
				<path fill="#818181" d="M-266.1,77.1c-0.4,0-0.7,0-1,0c-0.1-0.1-0.2-0.2-0.2-0.3c-0.1-4.2-1.3-8.2-3.5-11.8
					c-0.2-0.4-0.1-0.9-0.2-1.4c0.4,0.3,0.9,0.4,1.1,0.8C-267.4,68.4-266,72.5-266.1,77.1z"/>
				<path fill="#818181" d="M-284.1,13.9c-0.1,4.5-0.1,9-0.2,13.5c0,0.6-0.3,1.3-0.4,1.9c-0.1-0.6-0.4-1.2-0.4-1.8
					c0.1-8.8,0.2-17.6,0.4-26.4c0-0.4,0-0.9,0.1-1.3c0.1-0.7,0.3-1.3,0.4-1.9c0.1,0.7,0.3,1.4,0.3,2.1
					C-284,4.6-284.1,9.3-284.1,13.9C-284.1,13.9-284.1,13.9-284.1,13.9z"/>
				<path fill="#818181" d="M-288.8,79.1c2.2,0,4.3,0.1,6.5,0.1c0.1,0.6,0.2,1.1,0.3,1.9c-1-0.3-1.8-0.8-2.7-0.9
					c-1-0.2-2-0.1-3.1-0.1c0,2.1-0.1,4.1-0.1,6.2c-0.4,0.1-0.6,0.1-1,0.2C-288.8,86.6-288.9,81.7-288.8,79.1z"/>
				<path fill="#818181" d="M-274.9,52.4c-0.4,0.3-0.8,1-1.2,0.9c-3.7-0.1-7.4-0.3-11.1-0.5c-0.1-0.2-0.2-0.4-0.3-0.5
					c0.5-0.3,0.9-0.9,1.4-0.9c3.6,0.1,7.2,0.3,10.7,0.4C-275.2,52.1-275,52.3-274.9,52.4z"/>
				<path fill="#818181" d="M-289.1,54.9c0.3,0.3,0.6,1,1,0.9c2.8-0.1,5.7-0.3,8.5-0.5c0.1-0.2,0.1-0.4,0.2-0.5
					c-0.4-0.3-0.7-0.9-1.1-0.9c-2.8,0.1-5.5,0.3-8.3,0.4C-288.9,54.5-289,54.7-289.1,54.9z"/>
				<path fill="#818181" d="M-280,56c0.1,0.2,0.3,0.6,0.4,0.6c1.6,0.3,3.2,0.5,4.8,0.7c0.1-0.1,0.1-0.2,0.2-0.3
					c-0.2-0.2-0.3-0.6-0.5-0.6c-1.5-0.3-3.1-0.5-4.6-0.7C-279.8,55.9-279.9,55.9-280,56z"/>
				<path fill="#818181" d="M-284.9,82.6c1.9-0.6,3.2,0.1,3.6,1.9c0.4,1.8,0.3,3.7,0.4,5.6c0,0.3-0.5,0.5-0.7,0.8
					c-0.2-0.3-0.5-0.6-0.5-0.9c0-0.8,0.2-1.6,0.1-2.4C-282.2,85.6-282.2,83.6-284.9,82.6z"/>
			</g>
		</g>
		<path fill="#00903A" d="M-959.9-239.5V-28l33.3-69.2l47.9-8l61.7,40.1l90.2-66.5l35.5,40.8L-662-134l33.1,38.7l43.7-11.9
			l40.8,32.1c0,0,88.9-68.4,98.7-70.9c1.4-0.4,2.6-0.1,3.8,1.2c15.2,15.7,30.3,31.2,45.5,46.9c26.7,27.5,53.5,55,80.2,82.5
			c0.8,0.8,1.6,1.4,2.6,1.4c19.5,0.7,40-0.5,59.6,0.2c1.3,0.1,2.5-0.2,3.5-1.5c15.8-18.2,30.8-34.4,46.6-52.5
			c1.6-1.8,53.4-30.3,77.5-43.1c0.9-0.5,1.8-0.7,2.8-0.6C-108.2-109.4,4.8-94,21.3-92c3.5,0.4,6.4,1.8,8.7,5.6
			c1.6,2.6,3.6,4.8,5.5,7.1c18.9,24.1,75.4,96.4,84.8,108.4c0.6,0.8,1.3,1.3,2.2,1.2c6.9-1.1,20.8-3.2,20.8-3.2l40.1-64.1l4.3,2.5
			L307,72.1l1.6-3c23.1-27.4,46.2-54.8,69.4-82.2c2-2.4,3.9-5.2,6.5-6.6c5.5-3,187.9,41.1,187.9,41.1L611.7-30l57.8-1.7l159,39.3
			l58.8-46.3L960.1-28v-40.8v-170.6H-959.9z"/>
		<path fill="#89D3E2" d="M406.5-57.4"/>
		<path fill="#00B74C" d="M960.1-243.5h-1920l0,0v141.9l61.8-79.5l59.3,79.5l52.5-79.6l69.4,20.1l60.2-37.9l37.6,81.2l91.8-65.2
			l15.6-16l28.9,40.9l26.2-30.1l100,18.5l91.4,69.3l139.4-91.7l112.5,67.5L54.2-165l56.6,63.2c0,0,197.9-57.7,198.8-56.8
			c12.2,13,57.4,60.5,67.7,71.4c1.4,1.5,2.8,3.1,4.2,4.7c0.6,0.7,1.2,1.1,2.2,0.7c6.9-2.6,43.5-59.9,43.5-59.9L556.8-18.5
			l124.7-115.4l93.7,96.1l59.3-120.8l125.6,57V-243.5z"/>
	</g>
	<polygon fill="#FFFFFF" points="238.9,246.5 277.7,225.6 353.7,129.5 304.8,162.6 273.8,149.8 240.7,172 215.2,138.2 209.4,162.5 
		165.7,123.5 	"/>
</symbol>
<use xlink:href="#Mountains"  width="1920" height="489.9" id="XMLID_1_" x="-959.9" y="-243.5" transform="matrix(1.0016 0 0 -1.0016 959.9112 262.5757)" overflow="visible"/>
</svg>
