<!-- Generator: Adobe Illustrator 18.0.0, SVG Export Plug-In  -->
<svg version="1.1"
	 xmlns="http://www.w3.org/2000/svg" xmlns:xlink="http://www.w3.org/1999/xlink" xmlns:a="http://ns.adobe.com/AdobeSVGViewerExtensions/3.0/"
	 x="0px" y="0px" width="38px" height="64px" viewBox="0 0 38 64" enable-background="new 0 0 38 64" xml:space="preserve">
<defs>
</defs>
<g>
	<g>
		<defs>
			<path id="SVGID_1_" d="M23.2,39.9L9.3,63h7c1.7,0,3.7-1.2,4.6-2.6l5.9-9.8c0.7-1.4,0.7-3.5-0.1-4.9L23.2,39.9"/>
		</defs>
		<clipPath id="SVGID_2_">
			<use xlink:href="#SVGID_1_"  overflow="visible"/>
		</clipPath>
		<rect x="8.3" y="39" clip-path="url(#SVGID_2_)" fill="#FFFFFF" width="19.9" height="25"/>
	</g>
	<g>
		<defs>
			<path id="SVGID_3_" d="M16.8,29.4c0.9,1.4,0.9,3.8,0,5.2L1.2,60.7C0.6,62,1.3,63,2.8,63h6.5l13.9-23.1L16.8,29.4"/>
		</defs>
		<clipPath id="SVGID_4_">
			<use xlink:href="#SVGID_3_"  overflow="visible"/>
		</clipPath>
		<rect x="0" y="28.4" clip-path="url(#SVGID_4_)" fill="#E6E6E5" width="24.1" height="35.6"/>
	</g>
	<g>
		<defs>
			<path id="SVGID_5_" d="M2.8,1C1.1,1,0.5,2.1,1.3,3.6l25.3,42.2c0.8,1.3,0.8,3.4,0.1,4.9L33,40.3L9.3,1H2.8"/>
		</defs>
		<clipPath id="SVGID_6_">
			<use xlink:href="#SVGID_5_"  overflow="visible"/>
		</clipPath>
		<rect x="0" y="0" clip-path="url(#SVGID_6_)" fill="#F3F3F3" width="33.9" height="51.6"/>
	</g>
	<g>
		<defs>
			<path id="SVGID_7_" d="M36.4,29.4L20.9,3.6C20,2.1,18,1,16.3,1h-7L33,40.3l3.4-5.7C37.3,33.2,37.3,30.8,36.4,29.4"/>
		</defs>
		<clipPath id="SVGID_8_">
			<use xlink:href="#SVGID_7_"  overflow="visible"/>
		</clipPath>
		<rect x="8.3" y="0" clip-path="url(#SVGID_8_)" fill="#E6E6E5" width="29.7" height="41.3"/>
	</g>
</g>
</svg>
