<!-- Generator: Adobe Illustrator 18.0.0, SVG Export Plug-In  -->
<svg version="1.1"
	 xmlns="http://www.w3.org/2000/svg" xmlns:xlink="http://www.w3.org/1999/xlink" xmlns:a="http://ns.adobe.com/AdobeSVGViewerExtensions/3.0/"
	 x="0px" y="0px" width="181.9px" height="378.4px" viewBox="0 0 181.9 378.4" enable-background="new 0 0 181.9 378.4"
	 xml:space="preserve">
<defs>
</defs>
<g>
	<g>
		<defs>
			<path id="SVGID_1_" d="M103.8,166.1L46,262.2h29.2c6.9,0,15.5-4.9,19-10.8l24.6-41c2.9-6,2.8-14.7-0.5-20.3L103.8,166.1"/>
		</defs>
		<clipPath id="SVGID_2_">
			<use xlink:href="#SVGID_1_"  overflow="visible"/>
		</clipPath>
		<rect x="42" y="162.1" clip-path="url(#SVGID_2_)" fill="#FFFFFF" width="82.9" height="104.1"/>
	</g>
	<g>
		<g>
			<defs>
				<path id="SVGID_3_" d="M77.4,122.3c3.6,5.9,3.6,15.7,0,21.6L12.5,252.5c-2.5,5.4,0.1,9.6,6.5,9.6h27l57.8-96.1L77.4,122.3"/>
			</defs>
			<clipPath id="SVGID_4_">
				<use xlink:href="#SVGID_3_"  overflow="visible"/>
			</clipPath>
			<rect x="7.5" y="118.3" clip-path="url(#SVGID_4_)" fill="#E6E6E5" width="100.2" height="147.9"/>
		</g>
		<g>
			<defs>
				<path id="SVGID_5_" d="M19,4c-6.9,0-9.7,4.9-6.1,10.8l105.4,175.3c3.3,5.5,3.4,14.3,0.5,20.3l25.6-42.7L46,4H19"/>
			</defs>
			<clipPath id="SVGID_6_">
				<use xlink:href="#SVGID_5_"  overflow="visible"/>
			</clipPath>
			<rect x="7.3" y="0" clip-path="url(#SVGID_6_)" fill="#F3F3F3" width="141.1" height="214.4"/>
		</g>
		<g>
			<defs>
				<path id="SVGID_7_" d="M158.7,122.3L94.2,14.8C90.7,8.9,82.1,4,75.2,4H46l98.4,163.7l14.3-23.8
					C162.3,137.9,162.3,128.2,158.7,122.3"/>
			</defs>
			<clipPath id="SVGID_8_">
				<use xlink:href="#SVGID_7_"  overflow="visible"/>
			</clipPath>
			<rect x="42" y="0" clip-path="url(#SVGID_8_)" fill="#E6E6E5" width="123.3" height="171.7"/>
		</g>
		<g>
			<defs>
				<path id="SVGID_9_" d="M14.4,354.9c-2.1,0-3.7,0.7-4.9,2.2s-1.8,3.5-1.8,6c0,2.7,0.6,4.7,1.7,6.1c1.1,1.4,2.8,2.1,4.9,2.1
					c0.9,0,1.8-0.1,2.7-0.3c0.9-0.2,1.8-0.4,2.7-0.7v3.1c-1.7,0.6-3.7,1-5.9,1c-3.2,0-5.7-1-7.4-2.9c-1.7-1.9-2.6-4.7-2.6-8.3
					c0-2.3,0.4-4.3,1.3-6c0.8-1.7,2-3,3.6-3.9c1.6-0.9,3.4-1.4,5.6-1.4c2.2,0,4.3,0.5,6.2,1.4l-1.3,3c-0.7-0.3-1.5-0.7-2.4-0.9
					C16.2,355.1,15.3,354.9,14.4,354.9"/>
			</defs>
			<clipPath id="SVGID_10_">
				<use xlink:href="#SVGID_9_"  overflow="visible"/>
			</clipPath>
			<rect x="0" y="347.9" clip-path="url(#SVGID_10_)" fill="#FAFAFA" width="24.7" height="30.5"/>
		</g>
		<g>
			<defs>
				<path id="SVGID_11_" d="M25,365.8c0,3.8,1.4,5.7,4.3,5.7c2.8,0,4.2-1.9,4.2-5.7c0-3.8-1.4-5.7-4.2-5.7c-1.5,0-2.6,0.5-3.2,1.5
					C25.3,362.5,25,363.9,25,365.8z M37.1,365.8c0,2.7-0.7,4.8-2.1,6.3c-1.4,1.5-3.3,2.3-5.8,2.3c-1.6,0-2.9-0.4-4.1-1.1
					c-1.2-0.7-2.1-1.7-2.7-3c-0.6-1.3-1-2.8-1-4.6c0-2.7,0.7-4.8,2.1-6.3c1.4-1.5,3.3-2.3,5.8-2.3c2.4,0,4.3,0.8,5.7,2.3
					C36.4,361.1,37.1,363.2,37.1,365.8z"/>
			</defs>
			<clipPath id="SVGID_12_">
				<use xlink:href="#SVGID_11_"  overflow="visible"/>
			</clipPath>
			<rect x="17.4" y="353.2" clip-path="url(#SVGID_12_)" fill="#FAFAFA" width="23.7" height="25.2"/>
		</g>
		<g>
			<defs>
				<path id="SVGID_13_" d="M46,374.4c-2.5,0-4.4-0.7-5.7-2.2c-1.3-1.5-2-3.6-2-6.3c0-2.8,0.7-4.9,2.1-6.4c1.4-1.5,3.3-2.3,5.9-2.3
					c1.8,0,3.3,0.3,4.7,1l-1.1,2.8c-1.5-0.6-2.7-0.9-3.7-0.9c-2.9,0-4.3,1.9-4.3,5.7c0,1.9,0.4,3.3,1.1,4.2c0.7,0.9,1.8,1.4,3.1,1.4
					c1.6,0,3.1-0.4,4.5-1.2v3.1c-0.6,0.4-1.3,0.6-2,0.8C47.9,374.3,47,374.4,46,374.4"/>
			</defs>
			<clipPath id="SVGID_14_">
				<use xlink:href="#SVGID_13_"  overflow="visible"/>
			</clipPath>
			<rect x="34.3" y="353.2" clip-path="url(#SVGID_14_)" fill="#FAFAFA" width="20.7" height="25.2"/>
		</g>
		<g>
			<defs>
				<path id="SVGID_15_" d="M67.3,374.1h-3.5v-10.2c0-1.3-0.3-2.2-0.8-2.9s-1.3-0.9-2.5-0.9c-1.5,0-2.6,0.4-3.3,1.3
					c-0.7,0.9-1,2.4-1,4.4v8.2h-3.5v-23.3h3.5v5.9c0,1-0.1,2-0.2,3h0.2c0.5-0.8,1.1-1.4,2-1.9c0.9-0.4,1.9-0.7,3-0.7c4,0,6,2,6,6.1
					V374.1"/>
			</defs>
			<clipPath id="SVGID_16_">
				<use xlink:href="#SVGID_15_"  overflow="visible"/>
			</clipPath>
			<rect x="48.7" y="346.8" clip-path="url(#SVGID_16_)" fill="#FAFAFA" width="22.6" height="31.3"/>
		</g>
		<g>
			<defs>
				<path id="SVGID_17_" d="M75.5,371.7c1.3,0,2.3-0.4,3.1-1.1c0.8-0.7,1.2-1.7,1.2-3v-1.4l-2.1,0.1c-1.7,0.1-2.9,0.3-3.6,0.8
					c-0.8,0.5-1.1,1.3-1.1,2.3c0,0.7,0.2,1.3,0.7,1.7C74,371.5,74.6,371.7,75.5,371.7z M80.8,374.1l-0.7-2.3h-0.1
					c-0.8,1-1.6,1.7-2.4,2.1c-0.8,0.4-1.9,0.5-3.1,0.5c-1.6,0-2.9-0.4-3.8-1.3c-0.9-0.9-1.4-2.1-1.4-3.7c0-1.7,0.6-3,1.9-3.9
					c1.3-0.9,3.2-1.3,5.8-1.4l2.9-0.1v-0.9c0-1.1-0.2-1.9-0.7-2.4c-0.5-0.5-1.3-0.8-2.3-0.8c-0.9,0-1.7,0.1-2.4,0.4
					c-0.8,0.2-1.5,0.5-2.3,0.9l-1.1-2.5c0.9-0.5,1.9-0.8,3-1.1c1.1-0.2,2.1-0.4,3-0.4c2.1,0,3.7,0.5,4.8,1.4
					c1.1,0.9,1.6,2.4,1.6,4.3v11.2H80.8z"/>
			</defs>
			<clipPath id="SVGID_18_">
				<use xlink:href="#SVGID_17_"  overflow="visible"/>
			</clipPath>
			<rect x="65.2" y="353.2" clip-path="url(#SVGID_18_)" fill="#FAFAFA" width="22.1" height="25.2"/>
		</g>
		<g>
			<defs>
				<path id="SVGID_19_" d="M93.9,360.1c-1.4,0-2.4,0.4-3.1,1.3c-0.6,0.8-0.9,2.2-1,4.2v0.2c0,2,0.3,3.5,1,4.4
					c0.6,0.9,1.7,1.4,3.1,1.4c1.3,0,2.2-0.5,2.8-1.5c0.6-1,1-2.4,1-4.3C97.8,362,96.5,360.1,93.9,360.1z M94.8,357.2
					c2.1,0,3.7,0.8,4.8,2.3c1.2,1.5,1.7,3.6,1.7,6.3c0,2.7-0.6,4.8-1.8,6.4c-1.2,1.5-2.8,2.3-4.9,2.3c-2.1,0-3.7-0.8-4.9-2.3h-0.2
					l-0.6,2h-2.6v-23.3h3.5v5.5c0,0.4,0,1-0.1,1.8c0,0.8-0.1,1.3-0.1,1.5h0.1C91,358,92.7,357.2,94.8,357.2z"/>
			</defs>
			<clipPath id="SVGID_20_">
				<use xlink:href="#SVGID_19_"  overflow="visible"/>
			</clipPath>
			<rect x="82.4" y="346.8" clip-path="url(#SVGID_20_)" fill="#FAFAFA" width="23.1" height="31.6"/>
		</g>
		<g>
			<defs>
				<path id="SVGID_21_" d="M108.8,371.7c1.3,0,2.3-0.4,3.1-1.1c0.8-0.7,1.2-1.7,1.2-3v-1.4l-2.1,0.1c-1.7,0.1-2.9,0.3-3.6,0.8
					c-0.8,0.5-1.1,1.3-1.1,2.3c0,0.7,0.2,1.3,0.7,1.7C107.3,371.5,107.9,371.7,108.8,371.7z M114.1,374.1l-0.7-2.3h-0.1
					c-0.8,1-1.6,1.7-2.4,2.1c-0.8,0.4-1.9,0.5-3.1,0.5c-1.6,0-2.9-0.4-3.8-1.3c-0.9-0.9-1.4-2.1-1.4-3.7c0-1.7,0.6-3,1.9-3.9
					c1.3-0.9,3.2-1.3,5.8-1.4l2.9-0.1v-0.9c0-1.1-0.2-1.9-0.7-2.4c-0.5-0.5-1.3-0.8-2.3-0.8c-0.9,0-1.7,0.1-2.4,0.4
					c-0.8,0.2-1.5,0.5-2.3,0.9l-1.1-2.5c0.9-0.5,1.9-0.8,3-1.1c1.1-0.2,2.1-0.4,3-0.4c2.1,0,3.7,0.5,4.8,1.4
					c1.1,0.9,1.6,2.4,1.6,4.3v11.2H114.1z"/>
			</defs>
			<clipPath id="SVGID_22_">
				<use xlink:href="#SVGID_21_"  overflow="visible"/>
			</clipPath>
			<rect x="98.5" y="353.2" clip-path="url(#SVGID_22_)" fill="#FAFAFA" width="22.1" height="25.2"/>
		</g>
		<g>
			<defs>
				<path id="SVGID_23_" d="M133.7,374.1h-3.5v-10.2c0-1.3-0.2-2.2-0.7-2.8c-0.5-0.6-1.2-0.9-2.3-0.9c-1.4,0-2.4,0.4-3,1.3
					c-0.6,0.9-1,2.4-1,4.4v8.3h-3.5v-16.6h2.8l0.5,2.2h0.2c0.5-0.8,1.1-1.4,2-1.8c0.9-0.4,1.8-0.6,2.9-0.6c2.6,0,4.2,0.9,5.1,2.6
					h0.2c0.5-0.8,1.2-1.5,2.1-1.9c0.9-0.5,1.9-0.7,3.1-0.7c2,0,3.4,0.5,4.3,1.5c0.9,1,1.4,2.5,1.4,4.6v10.8h-3.5v-10.2
					c0-1.3-0.2-2.2-0.7-2.8c-0.5-0.6-1.2-0.9-2.3-0.9c-1.4,0-2.4,0.4-3,1.3c-0.6,0.9-1,2.2-1,3.9V374.1"/>
			</defs>
			<clipPath id="SVGID_24_">
				<use xlink:href="#SVGID_23_"  overflow="visible"/>
			</clipPath>
			<rect x="115.7" y="353.2" clip-path="url(#SVGID_24_)" fill="#FAFAFA" width="32.5" height="24.9"/>
		</g>
		<g>
			<defs>
				<path id="SVGID_25_" d="M154.8,360.1c-1.4,0-2.4,0.4-3.1,1.3c-0.6,0.8-0.9,2.2-1,4.2v0.2c0,2,0.3,3.5,1,4.4
					c0.6,0.9,1.7,1.4,3.1,1.4c1.3,0,2.2-0.5,2.8-1.5c0.6-1,1-2.4,1-4.3C158.7,362,157.4,360.1,154.8,360.1z M155.7,357.2
					c2.1,0,3.7,0.8,4.8,2.3c1.2,1.5,1.7,3.6,1.7,6.3c0,2.7-0.6,4.8-1.8,6.4c-1.2,1.5-2.8,2.3-4.9,2.3c-2.1,0-3.7-0.8-4.9-2.3h-0.2
					l-0.6,2h-2.6v-23.3h3.5v5.5c0,0.4,0,1-0.1,1.8c0,0.8-0.1,1.3-0.1,1.5h0.2C151.9,358,153.5,357.2,155.7,357.2z"/>
			</defs>
			<clipPath id="SVGID_26_">
				<use xlink:href="#SVGID_25_"  overflow="visible"/>
			</clipPath>
			<rect x="143.2" y="346.8" clip-path="url(#SVGID_26_)" fill="#FAFAFA" width="23.1" height="31.6"/>
		</g>
		<g>
			<defs>
				<path id="SVGID_27_" d="M169.7,371.7c1.3,0,2.3-0.4,3.1-1.1c0.8-0.7,1.2-1.7,1.2-3v-1.4l-2.1,0.1c-1.7,0.1-2.9,0.3-3.6,0.8
					c-0.8,0.5-1.1,1.3-1.1,2.3c0,0.7,0.2,1.3,0.7,1.7C168.2,371.5,168.8,371.7,169.7,371.7z M175,374.1l-0.7-2.3h-0.1
					c-0.8,1-1.6,1.7-2.4,2.1c-0.8,0.4-1.9,0.5-3.1,0.5c-1.6,0-2.9-0.4-3.8-1.3c-0.9-0.9-1.4-2.1-1.4-3.7c0-1.7,0.6-3,1.9-3.9
					c1.3-0.9,3.2-1.3,5.8-1.4l2.9-0.1v-0.9c0-1.1-0.2-1.9-0.7-2.4c-0.5-0.5-1.3-0.8-2.3-0.8c-0.9,0-1.7,0.1-2.4,0.4
					c-0.8,0.2-1.5,0.5-2.3,0.9l-1.1-2.5c0.9-0.5,1.9-0.8,3-1.1c1.1-0.2,2.1-0.4,3-0.4c2.1,0,3.7,0.5,4.8,1.4
					c1.1,0.9,1.6,2.4,1.6,4.3v11.2H175z"/>
			</defs>
			<clipPath id="SVGID_28_">
				<use xlink:href="#SVGID_27_"  overflow="visible"/>
			</clipPath>
			<rect x="159.4" y="353.2" clip-path="url(#SVGID_28_)" fill="#FAFAFA" width="22.1" height="25.2"/>
		</g>
		<g>
			<defs>
				<path id="SVGID_29_" d="M31,304.7h26.6V338c-7.2,2.5-15.1,3.7-23.8,3.7c-9.5,0-16.8-2.8-22-8.3C6.6,327.9,4,320,4,309.8
					c0-10,2.8-17.7,8.5-23.2c5.7-5.6,13.6-8.3,23.9-8.3c3.9,0,7.5,0.3,11,1.1c3.5,0.7,6.5,1.6,9,2.8l-5.3,13.1
					c-4.4-2.2-9.3-3.3-14.6-3.3c-4.8,0-8.6,1.6-11.3,4.8c-2.7,3.2-4,7.7-4,13.6c0,5.8,1.2,10.2,3.6,13.2c2.4,3,5.8,4.5,10.4,4.5
					c2.5,0,4.8-0.2,6.8-0.7v-9.7H31V304.7"/>
			</defs>
			<clipPath id="SVGID_30_">
				<use xlink:href="#SVGID_29_"  overflow="visible"/>
			</clipPath>
			<rect x="0" y="274.3" clip-path="url(#SVGID_30_)" fill="#FAFAFA" width="61.6" height="71.4"/>
		</g>
		<g>
			<defs>
				<path id="SVGID_31_" d="M119,308.7c0,10.3-2.8,18.2-8.5,23.8c-5.6,5.6-13.6,8.3-23.9,8.3H66.7v-61.7H88c9.9,0,17.5,2.5,22.9,7.6
					C116.3,291.8,119,299.1,119,308.7 M101.7,309.3c0-5.7-1.1-9.9-3.3-12.6c-2.2-2.7-5.6-4.1-10.2-4.1h-4.8v34.6h3.7
					c5.1,0,8.8-1.5,11.1-4.4C100.6,319.8,101.7,315.3,101.7,309.3"/>
			</defs>
			<clipPath id="SVGID_32_">
				<use xlink:href="#SVGID_31_"  overflow="visible"/>
			</clipPath>
			<rect x="62.7" y="275.1" clip-path="url(#SVGID_32_)" fill="#FAFAFA" width="60.3" height="69.7"/>
		</g>
		<g>
			<defs>
				<path id="SVGID_33_" d="M151.3,304.7h26.6V338c-7.2,2.5-15.2,3.7-23.8,3.7c-9.5,0-16.8-2.8-22-8.3c-5.2-5.5-7.8-13.4-7.8-23.6
					c0-10,2.8-17.7,8.5-23.2c5.7-5.6,13.6-8.3,23.9-8.3c3.9,0,7.5,0.3,11,1.1c3.4,0.7,6.4,1.6,9,2.8l-5.3,13.1
					c-4.4-2.2-9.3-3.3-14.6-3.3c-4.9,0-8.6,1.6-11.3,4.8c-2.6,3.2-4,7.7-4,13.6c0,5.8,1.2,10.2,3.6,13.2c2.4,3,5.9,4.5,10.4,4.5
					c2.5,0,4.8-0.2,6.8-0.7v-9.7h-11V304.7"/>
			</defs>
			<clipPath id="SVGID_34_">
				<use xlink:href="#SVGID_33_"  overflow="visible"/>
			</clipPath>
			<rect x="120.3" y="274.3" clip-path="url(#SVGID_34_)" fill="#FAFAFA" width="61.6" height="71.4"/>
		</g>
	</g>
</g>
</svg>
